<svg width="259" height="259" viewBox="0 0 259 259" fill="none" xmlns="http://www.w3.org/2000/svg">
<path d="M168.383 39.27H74.2789C71.6505 39.27 69.4989 41.5623 69.4989 44.3642V231.582C69.4989 234.384 71.6505 236.676 74.2789 236.676H168.383C171.011 236.676 173.161 234.384 173.161 231.584V44.366C173.154 41.5568 171.011 39.27 168.383 39.27Z" fill="#F9CECC"/>
<path d="M171.417 48.5142H71.2634V226.914H171.417V48.5142Z" fill="url(#paint0_linear_64_2401)"/>
<g opacity="0.86">
<path d="M171.417 48.5142H71.2634V226.914H171.417V48.5142Z" fill="white"/>
</g>
<path d="M71.0807 227.272H171.579V48.5049H71.0807V227.272ZM171.234 48.872V226.903H71.4259V48.872" fill="#F6F0EC"/>
<path d="M136.452 42.8794H106.208V44.0356H136.452V42.8794Z" fill="#9D9D9D"/>
<path d="M158.71 57.0986H82.6773C81.6009 57.0986 80.7284 57.9712 80.7284 59.0475V64.1563C80.7284 65.2326 81.6009 66.1052 82.6773 66.1052H158.71C159.786 66.1052 160.659 65.2326 160.659 64.1563V59.0475C160.659 57.9712 159.786 57.0986 158.71 57.0986Z" fill="white"/>
<path d="M161.519 72.8596H79.4827C78.4064 72.8596 77.5338 73.7322 77.5338 74.8085V154.837C77.5338 155.914 78.4064 156.786 79.4827 156.786H161.519C162.595 156.786 163.468 155.914 163.468 154.837V74.8085C163.468 73.7322 162.595 72.8596 161.519 72.8596Z" fill="white"/>
<path d="M161.519 193.359H79.4827C78.4064 193.359 77.5338 194.231 77.5338 195.308V208.444C77.5338 209.52 78.4064 210.393 79.4827 210.393H161.519C162.595 210.393 163.468 209.52 163.468 208.444V195.308C163.468 194.231 162.595 193.359 161.519 193.359Z" fill="white"/>
<path d="M113.584 162.783H79.4827C78.4064 162.783 77.5338 163.655 77.5338 164.732V185.34C77.5338 186.417 78.4064 187.289 79.4827 187.289H113.584C114.66 187.289 115.533 186.417 115.533 185.34V164.732C115.533 163.655 114.66 162.783 113.584 162.783Z" fill="white"/>
<path d="M161.521 162.783H127.42C126.343 162.783 125.471 163.655 125.471 164.732V185.34C125.471 186.417 126.343 187.289 127.42 187.289H161.521C162.597 187.289 163.47 186.417 163.47 185.34V164.732C163.47 163.655 162.597 162.783 161.521 162.783Z" fill="white"/>
<path d="M159.418 215.459H82.1695C81.1698 215.459 80.3594 216.27 80.3594 217.27V218.152C80.3594 219.151 81.1698 219.962 82.1695 219.962H159.418C160.418 219.962 161.228 219.151 161.228 218.152V217.27C161.228 216.27 160.418 215.459 159.418 215.459Z" fill="white"/>
<path opacity="0.13" d="M151.491 147.022L151.201 146.393C150.815 145.162 150.428 143.824 150.045 142.428L150.278 142.342C149.73 141.628 145.641 121.206 144.656 116.261C145.237 115.531 144.936 112.908 143.687 108.848C141.738 102.513 139.56 101.359 139.007 100.867C138.55 100.457 137.696 100.252 136.998 100.152C137.297 97.0702 136.183 95.4026 135.144 94.5204C134.378 93.8817 133.4 93.5556 132.404 93.6071C128.645 93.7897 128.021 96.6957 128.342 99.788C128.483 101.182 125.98 101.952 127.484 102.816C128.556 103.434 129.915 103.436 131.242 103.246C131.149 104.361 131.136 105.482 131.204 106.599C130.788 106.13 130.3 105.898 129.942 106.683C129.394 107.894 130.855 108.816 131.317 109.335C131.404 109.428 131.497 109.514 131.597 109.593C131.343 110.546 131.049 111.195 130.738 111.041C128.167 109.808 126.468 106.418 126.468 106.418C126.468 106.418 126.833 103.165 125.31 104.214C124.214 104.968 125.003 106.517 125.127 107.195C125.252 107.872 126.897 111.779 130.227 114.283C131.604 115.319 132.879 113.874 133.862 111.986C133.974 112.224 134.073 112.467 134.159 112.716C135.208 115.666 134.561 117.465 135.422 118.344C135.534 118.415 135.651 118.476 135.774 118.526C134.768 123.224 133.381 132.066 134.01 143.14C134.019 143.17 134.103 143.204 134.234 143.241C134.161 145.433 134.081 146.972 133.969 147.341C133.728 147.456 132.156 148.225 132.223 148.677C132.278 149.042 134.176 148.881 135.131 148.775C135.276 148.76 135.409 148.689 135.502 148.577C135.595 148.465 135.641 148.321 135.63 148.176L135.571 147.38H135.555C135.71 146.174 135.895 144.872 136.103 143.517L136.393 143.539C136.256 142.939 138.51 133.162 140.329 125.456C142.412 131.492 144.965 137.354 147.964 142.991C147.986 143.013 148.076 143.011 148.211 142.991C149.053 145 149.626 146.421 149.685 146.815C149.685 146.815 148.256 148.277 148.498 148.704C148.68 149.027 150.395 148.209 151.254 147.776C151.385 147.707 151.484 147.589 151.528 147.448C151.573 147.307 151.559 147.153 151.491 147.022Z" fill="#FF6157"/>
<path opacity="0.13" d="M111.766 104.391C111.749 104.39 111.732 104.39 111.715 104.391C112.364 103.348 112.745 102.448 113.138 102.058C114.146 101.056 113.829 99.9562 112.517 99.1744C112.359 99.083 112.179 99.0339 111.996 99.0316C111.813 99.0294 111.633 99.0741 111.472 99.1616C111.178 99.3242 110.868 99.8539 110.807 100.184C110.692 100.838 111.304 100.99 111.056 101.507C110.325 103.025 107.585 105.364 107.45 105.302L107.417 105.291C107.441 105.187 107.461 105.109 107.476 105.041C107.642 104.393 107.328 105.017 107.207 104.658C107.087 104.298 106.842 104.338 106.758 104.457C106.338 103.984 105.613 103.151 104.95 102.325C104.95 101.156 104.82 100.133 104.493 99.3297C104.991 99.506 105.519 99.5763 106.046 99.5361C107.127 99.3534 107.257 96.2995 107.012 96.1241C107.573 94.6775 107.547 93.0081 107.492 92.2154C107.62 92.0638 108.406 91.0665 107.806 90.4382C107.469 90.0857 105.87 89.6053 104.073 89.5596C102.276 89.514 101.293 90.5003 101.059 91.6492C100.796 93.2017 101.341 94.6995 101.7 95.1981C101.491 95.4464 101.252 95.6679 100.988 95.8575C100.53 95.5963 97.5177 97.8338 95.3953 101.37C93.2035 105.05 92.5533 109.905 92.8674 113.56C92.861 113.706 92.8886 113.852 92.9482 113.986C93.0078 114.12 93.0977 114.238 93.2108 114.331C92.549 115.911 92.5195 117.685 93.1286 119.286C93.251 119.617 91.0281 132.696 89.0847 144.003C89.316 144.141 89.5608 144.254 89.8153 144.342C89.6473 145.049 89.4792 145.736 89.3112 146.394L89.218 146.372L88.9185 147.243C88.8644 147.401 88.874 147.575 88.9452 147.726C89.0164 147.878 89.1437 147.996 89.3002 148.056C90.334 148.45 92.4053 149.183 92.5679 148.786C92.7907 148.264 90.9824 146.762 90.9824 146.762L90.9295 146.752C91.0895 146.082 91.2908 145.422 91.5322 144.777C91.9487 144.85 92.2336 144.87 92.208 144.828C94.5624 139.882 96.6921 133.444 98.3287 127.816C99.7351 132.514 101.478 138.37 103.443 145.071C103.652 145.101 103.862 145.117 104.073 145.117C104.294 145.939 104.477 146.72 104.659 147.475H104.599L104.57 148.388C104.564 148.555 104.624 148.718 104.737 148.843C104.849 148.967 105.006 149.042 105.173 149.053C106.269 149.128 108.46 149.221 108.512 148.799C108.572 148.235 106.404 147.338 106.404 147.338H106.331C106.15 146.561 106.013 145.774 105.922 144.982C106.322 144.921 106.583 144.859 106.543 144.834C106.398 135.46 103.927 121.971 102.707 115.861C102.833 115.822 102.949 115.757 103.048 115.67C103.147 115.583 103.227 115.477 103.282 115.357C103.795 113.852 103.304 114.884 103.648 112.519C103.695 112.205 103.742 111.889 103.792 111.573C108.435 111.443 110.811 108.468 112.071 108.018C113.533 107.491 113.728 106.254 112.789 104.875C112.674 104.714 112.52 104.584 112.341 104.5C112.162 104.415 111.964 104.378 111.766 104.391ZM104.948 108.616L104.919 108.59L105.025 108.457C105.127 108.461 105.224 108.505 105.295 108.579C105.183 108.616 105.065 108.629 104.948 108.616ZM110.27 106.519C110.004 106.727 109.719 106.911 109.419 107.067C109.801 106.755 110.159 106.414 110.49 106.048C110.495 106.138 110.478 106.229 110.439 106.311C110.401 106.393 110.343 106.465 110.27 106.519Z" fill="#FF6157"/>
<path opacity="0.18" d="M121.286 92.8052L113.273 113.664L119.047 113.478L111.598 130.985L123.454 109.94L117.869 109.878L121.286 92.8052Z" fill="#FF6157"/>
<path opacity="0.38" d="M103.405 178.546L103.381 178.524C102.952 178.131 102.524 177.737 102.091 177.351L102.06 177.322L102.126 177.154C102.333 176.599 102.461 176.018 102.504 175.428C102.505 175.402 102.515 175.377 102.531 175.356C102.548 175.336 102.57 175.321 102.595 175.315C102.877 175.243 103.154 175.157 103.434 175.075L104.254 174.838C104.285 174.829 104.311 174.809 104.327 174.781C104.344 174.754 104.35 174.721 104.343 174.69C104.212 173.985 104.08 173.298 103.956 172.611C103.931 172.471 103.841 172.485 103.741 172.493C103.184 172.531 102.626 172.562 102.069 172.606H102.04C101.797 172.018 101.463 171.473 101.052 170.988C101.036 170.968 101.025 170.945 101.023 170.92C101.02 170.895 101.024 170.869 101.036 170.847V170.836C101.256 170.43 101.471 170.021 101.68 169.609C101.889 169.196 101.887 169.19 101.51 168.916C101.048 168.58 100.583 168.25 100.111 167.91C100.085 167.892 100.054 167.884 100.023 167.888C99.9919 167.891 99.963 167.905 99.9415 167.928L99.8136 168.069C99.4629 168.466 99.1129 168.861 98.7634 169.256L98.736 169.287C98.6538 169.252 98.5716 169.218 98.4876 169.187C97.9728 168.994 97.4348 168.871 96.8876 168.821C96.8643 168.82 96.842 168.812 96.8236 168.798C96.729 168.716 96.6514 168.617 96.5953 168.506C96.5392 168.395 96.5057 168.273 96.4967 168.149C96.4194 167.784 96.3199 167.423 96.199 167.07C96.19 167.04 96.1705 167.014 96.144 166.997C96.1174 166.98 96.0857 166.974 96.0547 166.978L93.9359 167.344C93.9049 167.349 93.877 167.366 93.8575 167.39C93.838 167.415 93.8282 167.446 93.83 167.477C93.8683 168.074 93.9048 168.651 93.9487 169.23C93.9496 169.244 93.9496 169.257 93.9487 169.271C93.3457 169.519 92.7859 169.862 92.2902 170.286C92.2703 170.303 92.2456 170.314 92.2195 170.317C92.1933 170.319 92.167 170.314 92.1441 170.301C91.6509 170.012 91.1523 169.736 90.6463 169.451C90.6188 169.436 90.5866 169.432 90.5559 169.439C90.5252 169.446 90.4983 169.464 90.4801 169.49L89.2399 171.236C89.2219 171.262 89.2138 171.293 89.2171 171.324C89.2205 171.356 89.2351 171.385 89.2582 171.406C89.6746 171.786 90.0765 172.164 90.4947 172.522L90.5441 172.571C90.56 172.589 90.5706 172.61 90.5745 172.634C90.5784 172.657 90.5754 172.681 90.566 172.703C90.5495 172.743 90.5349 172.781 90.5203 172.821C90.2975 173.413 90.1675 174.036 90.1349 174.668C90.1265 174.674 90.1173 174.678 90.1075 174.681C89.7422 174.82 89.3769 174.938 89.0116 175.066L88.4034 175.274C88.3747 175.285 88.3507 175.305 88.3357 175.331C88.3206 175.358 88.3155 175.389 88.3212 175.419C88.4472 176.093 88.5678 176.747 88.6865 177.413C88.6926 177.444 88.7094 177.471 88.7338 177.49C88.7583 177.509 88.7888 177.519 88.8198 177.517C89.4134 177.484 89.9924 177.457 90.5715 177.411H90.6189C90.8719 178.009 91.217 178.564 91.6418 179.055C91.6582 179.074 91.6688 179.096 91.6723 179.121C91.6759 179.145 91.6723 179.17 91.6619 179.192C91.6308 179.256 91.5833 179.337 91.5194 179.444C91.2838 179.841 91.0555 180.241 90.8162 180.653C90.8009 180.681 90.796 180.713 90.8024 180.744C90.8087 180.775 90.826 180.802 90.8509 180.822L92.5879 182.091C92.6133 182.11 92.6447 182.118 92.676 182.115C92.7074 182.112 92.7365 182.098 92.7578 182.075C93.1542 181.64 93.5414 181.22 93.9213 180.796C93.9388 180.777 93.9619 180.763 93.9874 180.757C94.0128 180.751 94.0395 180.753 94.0638 180.763L94.1478 180.794C94.7426 181.018 95.3687 181.148 96.0035 181.18L96.0145 181.214C96.1679 181.78 96.3378 182.343 96.504 182.915C96.5129 182.945 96.5328 182.971 96.5598 182.988C96.5868 183.004 96.619 183.01 96.6501 183.004L98.7798 182.597C98.8103 182.59 98.8373 182.573 98.8561 182.548C98.8749 182.524 98.8841 182.493 98.8821 182.462C98.8456 181.892 98.8127 181.331 98.7707 180.77C98.7693 180.744 98.7759 180.718 98.7896 180.696C98.8033 180.674 98.8235 180.657 98.8474 180.646C99.3957 180.401 99.9051 180.076 100.36 179.684C100.377 179.668 100.399 179.658 100.421 179.654C100.444 179.65 100.468 179.653 100.489 179.662C100.672 179.733 100.855 179.89 101.026 179.987L101.967 180.496C101.994 180.511 102.026 180.515 102.057 180.508C102.087 180.501 102.113 180.483 102.131 180.458L103.41 178.721C103.431 178.696 103.442 178.665 103.441 178.632C103.44 178.6 103.427 178.569 103.405 178.546ZM95.1852 178.038C94.5825 177.81 94.0607 177.409 93.6859 176.885C93.3111 176.361 93.1001 175.738 93.0794 175.094C93.0588 174.45 93.2296 173.814 93.5701 173.267C93.9107 172.72 94.4057 172.287 94.9927 172.021C95.5796 171.755 96.2322 171.67 96.8678 171.775C97.5035 171.88 98.0937 172.171 98.5639 172.611C99.0342 173.052 99.3632 173.622 99.5096 174.249C99.656 174.877 99.613 175.533 99.3862 176.137C99.0755 176.943 98.46 177.594 97.6728 177.95C96.8857 178.305 95.9901 178.337 95.1798 178.038H95.1852Z" fill="white"/>
<g opacity="0.38">
<path d="M140.251 173.07C140.759 172.12 140.908 171.019 140.671 169.969C140.433 168.919 139.825 167.989 138.958 167.35C138.091 166.711 137.023 166.407 135.95 166.491C134.876 166.576 133.869 167.045 133.113 167.812C132.357 168.579 131.902 169.593 131.833 170.667C131.764 171.742 132.084 172.806 132.735 173.663C133.386 174.521 134.324 175.116 135.378 175.338C136.431 175.561 137.53 175.396 138.472 174.874L149 185.243C149.057 185.3 149.124 185.345 149.198 185.376C149.273 185.407 149.352 185.423 149.433 185.423C149.513 185.423 149.593 185.407 149.667 185.376C149.741 185.345 149.809 185.3 149.866 185.243L150.779 184.31C150.836 184.253 150.881 184.186 150.912 184.111C150.943 184.037 150.958 183.958 150.958 183.877C150.958 183.797 150.943 183.717 150.912 183.643C150.881 183.569 150.836 183.501 150.779 183.444L149.957 182.626L151.321 181.243L150.7 180.642L149.219 180.781L149.573 179.532L148.032 178.014L146.918 177.97L146.772 176.772L146.289 176.297L144.927 177.682L140.251 173.07ZM134.559 169.234C134.759 169.032 135.014 168.893 135.292 168.836C135.57 168.779 135.859 168.805 136.122 168.912C136.385 169.019 136.61 169.201 136.769 169.436C136.929 169.671 137.015 169.948 137.017 170.232C137.019 170.516 136.937 170.794 136.781 171.031C136.625 171.268 136.402 171.454 136.141 171.564C135.879 171.675 135.591 171.706 135.312 171.652C135.033 171.599 134.776 171.464 134.574 171.265C134.304 170.998 134.151 170.635 134.149 170.256C134.146 169.877 134.294 169.512 134.559 169.241V169.234Z" fill="white"/>
</g>
<path d="M162.012 200.853C162.012 200.853 151.442 218.159 154.383 226.013C157.323 233.867 196.701 233.383 202.433 226.236C208.164 219.089 196.365 202.23 192.011 198.06C187.684 193.93 162.012 200.853 162.012 200.853Z" fill="#1E2223"/>
<path d="M168.48 160.321C168.48 160.321 162.039 163.559 161.185 165.307C160.33 167.055 162.003 183.47 160.439 192.924C158.987 201.783 151.21 207.439 155.899 211.006C163.753 216.961 192.56 218.495 200.785 215.547C209.048 212.643 197.808 193.55 199.074 183.766C200.34 173.981 198.708 164.819 198.329 164.187C196.394 161.135 187.015 158.343 187.015 158.343C187.015 158.343 179.384 168.918 168.48 160.321Z" fill="#FF251B"/>
<path d="M195.802 162.48C195.764 161.957 205.848 165.532 209.2 178.005C209.611 181.205 201.459 189.991 198.482 190.586C198.069 190.765 196.951 182.763 195.802 162.48Z" fill="#FF6157"/>
<path d="M166.432 162.777C166.282 162.107 164.606 162.595 162.562 163.707C158.987 165.68 151.692 174.761 151.321 180.902C151.247 183.77 158.094 189.835 161.55 191.101C162.184 191.324 162.779 186.783 162.854 186.113C165.65 169.327 166.916 165.117 166.432 162.777Z" fill="#FF6157"/>
<path d="M169.298 225.306C169.298 225.306 195.09 210.864 204.732 210.343C214.373 209.859 222.784 210.789 222.747 216.298C222.709 221.777 220.556 224.152 217.127 226.868C208.975 233.308 181.024 238.035 172.012 233.345C163.044 228.656 169.298 225.306 169.298 225.306Z" fill="#3A3B3A"/>
<path d="M199.519 228.395C197.693 226.934 190.476 225.306 186.381 224.598C186.233 225.306 184.484 230.59 183.777 232.713C189.768 234.424 192.299 235.02 194.867 236.183C196.581 236.927 201.194 241.356 204.619 241.729C208.04 242.054 202.572 230.852 199.519 228.395Z" fill="#FFBA93"/>
<path d="M201.158 228.656C199.856 227.39 198.254 226.282 196.506 226.756C196.448 226.788 196.386 226.813 196.323 226.831C202.316 235.429 197.923 238.183 197.923 238.183C199.078 241.422 205.739 245.219 207.936 240.79C209.569 237.63 204.285 231.745 201.158 228.656Z" fill="#1E2223"/>
<path d="M165.055 228.097C166.805 226.57 173.914 224.561 177.97 223.631C178.153 224.338 180.162 229.511 180.984 231.595C175.104 233.604 172.609 234.349 170.116 235.613C168.441 236.47 164.089 241.122 160.662 241.641C157.201 242.196 162.114 230.702 165.055 228.097Z" fill="#FFBA93"/>
<path d="M167.957 226.305C166.171 225.896 164.646 227.087 163.417 228.426C160.439 231.703 155.49 237.805 157.239 240.896C159.658 245.214 166.134 241.044 167.139 237.769C167.139 237.769 162.635 235.237 168.182 226.342C168.107 226.386 167.957 226.305 167.957 226.305Z" fill="#1E2223"/>
<path d="M191.258 224.97C191.258 224.97 165.428 213.432 155.824 211.757C144.622 209.785 137.847 213.134 138.145 218.607C138.443 224.079 141.272 225.566 144.324 228.879C149.533 234.499 187.497 237.142 188.504 235.131C190.811 230.479 191.258 224.97 191.258 224.97Z" fill="#1E2223"/>
<path d="M186.305 192.44H173.987C173.28 192.44 172.723 193.11 172.759 193.93L173.839 213.991C173.875 214.734 174.398 215.332 175.066 215.332H185.079C185.711 215.332 186.27 214.773 186.307 214.028L187.572 193.967C187.572 193.11 187.015 192.44 186.305 192.44Z" fill="#6C6C6C"/>
<path d="M151.917 182.652C152.81 183.806 157.462 188.942 160.178 190.467C160.067 192.031 160.142 193.483 160.737 194.971C162.078 198.173 167.214 205.057 170.675 205.766C176.155 205.653 179.011 207.18 178.164 209.264C176.191 213.991 170.869 213.321 168.449 212.391C163.126 211.273 149.17 200.071 150.211 190.356C150.465 188.131 151.283 185.026 151.917 182.652Z" fill="#FFBA93"/>
<path d="M208.005 181.461C207.337 182.504 201.53 188.608 199.603 190.17C199.786 191.733 200.385 192.887 199.865 194.413C198.71 197.689 191.229 205.43 187.81 206.323C182.33 206.506 180.105 207.18 181.073 209.189C183.307 213.805 188.63 212.986 190.975 211.943C196.259 210.53 211.706 198.88 210.142 189.24C209.792 187.006 208.751 183.769 208.005 181.461Z" fill="#FFBA93"/>
<g opacity="0.69">
<path d="M181.209 200.257V199.551C181.209 199.066 180.761 198.656 180.202 198.656H180.054C179.495 198.656 179.05 199.021 179.011 199.512V200.219C178.789 200.225 178.576 200.312 178.412 200.463C178.248 200.613 178.144 200.818 178.118 201.039L178.082 203.048C178.089 203.168 178.12 203.285 178.172 203.393C178.225 203.501 178.298 203.598 178.388 203.677C178.478 203.757 178.583 203.818 178.696 203.857C178.81 203.896 178.93 203.912 179.05 203.905L180.984 203.941C181.543 203.941 181.99 203.576 181.99 203.123L182.027 201.114C182.03 201.004 182.012 200.894 181.972 200.791C181.933 200.688 181.873 200.594 181.797 200.514C181.721 200.435 181.63 200.371 181.529 200.327C181.428 200.283 181.319 200.259 181.209 200.257ZM180.389 201.783L180.65 202.416H179.459L179.757 201.783C179.682 201.742 179.619 201.683 179.573 201.612C179.528 201.54 179.501 201.458 179.495 201.373C179.514 201.239 179.581 201.115 179.684 201.026C179.787 200.937 179.918 200.887 180.054 200.887C180.19 200.887 180.322 200.937 180.425 201.026C180.527 201.115 180.594 201.239 180.613 201.373C180.686 201.56 180.538 201.708 180.389 201.783ZM180.836 200.219L179.422 200.182V199.512C179.429 199.433 179.452 199.356 179.49 199.286C179.527 199.215 179.579 199.154 179.642 199.105C179.705 199.056 179.777 199.021 179.855 199.001C179.932 198.982 180.012 198.978 180.091 198.992H180.241C180.319 198.986 180.398 198.996 180.472 199.021C180.547 199.046 180.615 199.086 180.674 199.138C180.733 199.19 180.781 199.253 180.815 199.324C180.849 199.395 180.869 199.472 180.873 199.551L180.836 200.219Z" fill="white"/>
<path d="M182.734 197.876C182.609 197.821 182.487 197.76 182.368 197.693C182.186 197.58 182.003 197.468 181.848 197.395C181.587 197.213 181.327 197.03 181.141 196.873C181.075 196.802 181 196.741 180.918 196.69C180.88 196.654 180.843 196.617 180.807 196.579C180.71 196.502 180.623 196.415 180.546 196.319C180.427 196.204 180.315 196.082 180.21 195.954C180.106 196.083 179.994 196.204 179.875 196.319L179.614 196.579C179.578 196.617 179.541 196.654 179.503 196.654C179.43 196.729 179.355 196.765 179.28 196.836C179.043 197.014 178.794 197.176 178.535 197.32C178.387 197.432 178.2 197.503 178.014 197.618C177.881 197.686 177.744 197.747 177.605 197.801C177.077 198.016 176.525 198.166 175.961 198.246C175.552 200.033 175.143 205.021 179.979 206.732C184.856 205.244 184.706 200.257 184.363 198.471C183.808 198.306 183.264 198.108 182.734 197.876ZM183.738 200.444V200.555C183.736 200.881 183.699 201.205 183.627 201.523C183.627 201.596 183.59 201.706 183.59 201.783C183.593 201.803 183.591 201.823 183.584 201.843C183.578 201.862 183.567 201.88 183.552 201.894C183.516 201.969 183.516 202.077 183.479 202.155C183.227 203.129 182.696 204.009 181.952 204.687C181.841 204.798 181.693 204.869 181.587 204.984C181.514 205.057 181.404 205.096 181.327 205.167C180.909 205.424 180.458 205.625 179.987 205.764C176.005 204.349 176.334 200.217 176.675 198.767C177.831 198.592 178.908 198.073 179.764 197.276C179.8 197.24 179.875 197.203 179.912 197.129C179.948 197.054 179.987 197.054 180.025 197.017L180.208 196.834C180.437 197.113 180.686 197.374 180.953 197.616L180.989 197.653C181.082 197.736 181.181 197.812 181.287 197.877L181.326 197.914C181.493 198.034 181.667 198.146 181.846 198.248C181.956 198.331 182.08 198.393 182.211 198.431C182.248 198.469 182.323 198.469 182.359 198.506C182.428 198.547 182.505 198.572 182.584 198.581C182.621 198.581 182.657 198.617 182.732 198.617C182.811 198.664 182.901 198.689 182.993 198.692C183.03 198.692 183.068 198.729 183.105 198.729C183.287 198.767 183.47 198.84 183.663 198.878C183.662 198.93 183.675 198.981 183.7 199.026V199.065C183.732 199.199 183.744 199.336 183.737 199.474V200.442L183.738 200.444Z" fill="white"/>
</g>
<path d="M199.638 151.946L197.704 159.353C197.704 159.353 204.888 157.566 203.697 152.803C202.61 148.596 200.153 151.946 199.638 151.946Z" fill="#FFBA93"/>
<path d="M161.594 151.946L163.528 159.353C163.528 159.353 156.346 157.566 157.537 152.803C158.616 148.596 161.071 151.946 161.594 151.946Z" fill="#FFBA93"/>
<path d="M190.736 131.661C186.306 129.354 177.821 127.754 169.183 132.704C165.572 134.788 157.831 141.635 161.776 156.598C162.892 160.766 166.019 165.121 171.117 167.577C176.18 169.952 182.916 170.482 189.466 168.061C193.823 166.461 197.582 163.334 199.147 158.943C204.172 144.843 196.168 134.49 190.736 131.661Z" fill="#FFBA93"/>
<path d="M171.271 149.303C167.176 149.303 163.864 152.244 163.864 155.891C163.864 159.539 167.176 162.479 171.271 162.479C175.366 162.479 178.677 159.539 178.677 155.891C178.677 152.28 175.364 149.303 171.271 149.303ZM171.271 161.846C167.548 161.846 164.496 159.166 164.496 155.891C164.496 152.616 167.548 149.935 171.271 149.935C174.993 149.935 178.045 152.616 178.045 155.891C178.045 159.166 175.03 161.846 171.271 161.846Z" fill="#211A49"/>
<path d="M189.62 149.303C185.525 149.303 182.213 152.244 182.213 155.891C182.213 159.539 185.525 162.479 189.62 162.479C193.715 162.479 197.026 159.539 197.026 155.891C197.026 152.28 193.713 149.303 189.62 149.303ZM189.62 161.846C185.897 161.846 182.845 159.166 182.845 155.891C182.845 152.616 185.897 149.935 189.62 149.935C193.342 149.935 196.394 152.616 196.394 155.891C196.394 159.166 193.379 161.846 189.62 161.846Z" fill="#211A49"/>
<path d="M178.305 154.216C178.237 154.264 178.19 154.335 178.173 154.416C178.156 154.497 178.17 154.581 178.213 154.652C178.255 154.723 178.323 154.775 178.402 154.798C178.482 154.821 178.567 154.813 178.641 154.775C178.677 154.775 180.65 153.546 182.213 154.998C182.242 155.027 182.278 155.048 182.316 155.061C182.355 155.074 182.396 155.078 182.436 155.073C182.48 155.074 182.523 155.064 182.562 155.045C182.601 155.025 182.634 154.996 182.659 154.96C182.688 154.929 182.71 154.893 182.724 154.853C182.738 154.813 182.743 154.771 182.74 154.729C182.736 154.687 182.724 154.646 182.704 154.609C182.684 154.572 182.656 154.54 182.622 154.514C180.725 152.728 178.343 154.178 178.305 154.216Z" fill="#211A49"/>
<path d="M161.63 152.207C161.551 152.226 161.482 152.275 161.437 152.344C161.392 152.412 161.375 152.495 161.389 152.576C161.403 152.656 161.448 152.728 161.513 152.777C161.579 152.826 161.66 152.848 161.742 152.839C162.234 152.746 162.74 152.758 163.227 152.873C163.714 152.989 164.171 153.205 164.569 153.51C164.637 153.55 164.713 153.575 164.792 153.583C164.836 153.584 164.879 153.575 164.918 153.555C164.957 153.536 164.99 153.507 165.015 153.471C165.044 153.44 165.066 153.404 165.08 153.364C165.094 153.325 165.099 153.282 165.096 153.24C165.092 153.198 165.08 153.157 165.06 153.12C165.04 153.083 165.012 153.051 164.978 153.026C164.509 152.661 163.968 152.4 163.392 152.259C162.815 152.118 162.215 152.101 161.63 152.207Z" fill="#211A49"/>
<path d="M199.372 152.207C198.142 151.946 196.542 153.025 196.467 153.062C196.432 153.086 196.402 153.116 196.379 153.152C196.355 153.188 196.34 153.228 196.333 153.27C196.326 153.312 196.328 153.355 196.339 153.396C196.349 153.437 196.368 153.476 196.394 153.51C196.419 153.556 196.457 153.595 196.502 153.621C196.548 153.648 196.601 153.66 196.654 153.657C196.717 153.662 196.78 153.65 196.836 153.621C197.246 153.36 198.48 152.653 199.257 152.839C199.364 152.859 199.467 152.902 199.556 152.965C199.646 153.028 199.721 153.11 199.777 153.205C199.825 153.272 199.896 153.319 199.977 153.336C200.058 153.353 200.142 153.339 200.213 153.296C200.284 153.254 200.336 153.186 200.359 153.107C200.381 153.027 200.373 152.942 200.336 152.868C200.229 152.698 200.089 152.551 199.923 152.437C199.757 152.323 199.569 152.245 199.372 152.207Z" fill="#211A49"/>
<path d="M195.09 127.938C191.437 124.254 186.94 123.737 182.102 123.325C179.086 123.063 174.695 123.142 171.755 123.993C170.228 124.441 168.664 125.893 168.664 125.893C167.548 126.413 165.837 122.802 164.496 125.484C163.455 127.529 164.421 128.758 164.46 129.54C163.976 129.242 162.785 127.79 162.412 128.758C161.966 130.061 162.933 131.401 163.492 131.363C161.369 131.104 160.887 133.82 160.328 136.24C159.807 138.547 159.212 142.045 159.026 144.39C158.914 145.692 159.062 147.183 159.062 148.485C159.062 149.787 159.36 151.089 159.36 152.355C159.471 152.951 159.807 155.482 160.328 155.63C161.146 155.813 161.407 152.728 161.519 151.794C161.817 149.078 162.523 146.399 163.893 144.165C165.234 141.931 167.28 140.147 169.588 139.588C172.007 139.029 174.463 139.811 176.92 140.22C180.943 140.929 185.077 140.66 188.975 139.438C192.025 138.508 193.813 139.029 195.636 142.006C195.748 142.189 195.859 142.415 195.971 142.602C197.684 145.654 198.541 148.297 198.911 151.869C199.023 152.949 199.023 155.888 200.373 155.522C201.675 155.157 201.415 152.322 201.489 151.243C201.578 149.594 201.44 147.941 201.079 146.33C201.489 146.441 201.675 145.882 201.825 145.473C201.973 145.027 201.936 144.543 201.898 144.059C201.419 138.51 198.738 131.661 195.09 127.938Z" fill="#2C2C2C"/>
<path d="M80.9384 26.9924C76.3252 27.0094 71.8207 28.394 67.9944 30.9711C64.1681 33.5483 61.192 37.2022 59.4424 41.4707C57.6928 45.7393 57.2483 50.4309 58.1651 54.9521C59.0818 59.4733 61.3188 63.6211 64.5929 66.871C67.8671 70.1209 72.0314 72.3269 76.5594 73.21C81.0873 74.0932 85.7754 73.6138 90.0308 71.8324C94.2863 70.0511 97.9179 67.0479 100.467 63.2026C103.015 59.3572 104.366 54.8425 104.349 50.2293C104.338 47.1663 103.723 44.1356 102.541 41.3101C101.358 38.4847 99.6304 35.9198 97.4565 33.762C95.2826 31.6043 92.705 29.8958 89.8708 28.7343C87.0366 27.5727 84.0014 26.9808 80.9384 26.9924Z" fill="#FF6157"/>
<path d="M80.6297 23.8105C66.0304 23.8653 54.1945 35.7869 54.2493 50.3881C54.3041 64.9893 66.2258 76.8251 80.827 76.7703C95.4281 76.7155 107.264 64.7939 107.216 50.1927C107.169 35.5915 95.2327 23.7575 80.6297 23.8105ZM80.8124 72.1529C76.4885 72.1695 72.2569 70.9035 68.6525 68.5151C65.0482 66.1266 62.233 62.723 60.5631 58.7346C58.8932 54.7462 58.4435 50.3522 59.2709 46.1082C60.0983 41.8642 62.1656 37.9609 65.2114 34.8919C68.2572 31.8228 72.1447 29.7259 76.3822 28.8663C80.6198 28.0067 85.0171 28.423 89.0181 30.0625C93.019 31.702 96.444 34.4912 98.8597 38.0773C101.276 41.6634 102.574 45.8853 102.59 50.2091C102.603 56.004 100.318 61.5677 96.235 65.6802C92.1523 69.7927 86.6054 72.1184 80.8105 72.1474L80.8124 72.1529Z" fill="#F9CECC"/>
<path d="M87.5212 47.6027L82.2845 38.4902C82.127 38.2179 81.9006 37.9918 81.6281 37.8346C81.3556 37.6775 81.0466 37.5947 80.732 37.5947C80.4174 37.5947 80.1084 37.6775 79.8359 37.8346C79.5634 37.9918 79.337 38.2179 79.1795 38.4902L73.9374 47.6027L68.6898 56.7352C68.5326 57.0078 68.45 57.3169 68.4503 57.6315C68.4505 57.9462 68.5335 58.2552 68.6911 58.5275C68.8486 58.7998 69.0751 59.0259 69.3477 59.1829C69.6204 59.3399 69.9295 59.4224 70.2441 59.422H91.2144C91.5288 59.4218 91.8376 59.339 92.1099 59.1819C92.3822 59.0247 92.6084 58.7987 92.7659 58.5266C92.9233 58.2544 93.0064 57.9457 93.0069 57.6313C93.0075 57.3169 92.9253 57.0079 92.7687 56.7352L87.5212 47.6027ZM79.7895 42.7405C79.8207 42.6709 79.8749 42.6141 79.943 42.5797C80.0362 42.5308 80.1378 42.4999 80.2425 42.4884C80.4036 42.4679 80.566 42.4588 80.7284 42.461C80.8879 42.4586 81.0474 42.4696 81.2051 42.4939C81.3093 42.5083 81.4101 42.5411 81.5028 42.5907C81.5696 42.6239 81.624 42.6777 81.6581 42.7441C81.6887 42.813 81.7037 42.8879 81.7019 42.9633L81.5192 53.1589C81.5202 53.2106 81.5076 53.2616 81.4827 53.3069C81.4506 53.3558 81.4039 53.3935 81.3494 53.4146C81.2705 53.4472 81.1875 53.4687 81.1028 53.4786C80.9817 53.4942 80.8596 53.5016 80.7375 53.5005C80.6154 53.5017 80.4933 53.4944 80.3722 53.4786C80.2874 53.4687 80.2045 53.4472 80.1256 53.4146C80.0707 53.394 80.0239 53.3562 79.9923 53.3069C79.966 53.2621 79.9527 53.2108 79.9539 53.1589L79.7713 42.9633C79.758 42.8887 79.7643 42.8119 79.7895 42.7405ZM81.7987 56.622C81.7723 56.7581 81.7091 56.8845 81.616 56.9873C81.5222 57.0868 81.4017 57.1572 81.269 57.19C81.0896 57.2329 80.9055 57.2526 80.721 57.2485C80.5367 57.2521 80.3526 57.2325 80.1731 57.19C80.0396 57.159 79.9186 57.0883 79.8261 56.9873C79.7348 56.8832 79.6719 56.7574 79.6434 56.622C79.6087 56.4298 79.5928 56.2346 79.5959 56.0393C79.5931 55.841 79.609 55.6429 79.6434 55.4475C79.6673 55.3078 79.7306 55.1779 79.8261 55.0731C79.9218 54.9784 80.0419 54.912 80.1731 54.8813C80.3524 54.8381 80.5366 54.8184 80.721 54.8229C80.9055 54.8178 81.0898 54.8375 81.269 54.8813C81.3997 54.9132 81.5195 54.9794 81.616 55.0731C81.7134 55.1765 81.7771 55.3071 81.7987 55.4475C81.8347 55.6427 81.8512 55.8409 81.848 56.0393C81.8528 56.2346 81.8375 56.4298 81.8023 56.622H81.7987Z" fill="white"/>
<defs>
<linearGradient id="paint0_linear_64_2401" x1="71.2634" y1="137.714" x2="171.417" y2="137.714" gradientUnits="userSpaceOnUse">
<stop stop-color="#81CCE3"/>
<stop offset="0.23" stop-color="#68C1D7"/>
<stop offset="0.72" stop-color="#27A4B9"/>
<stop offset="1" stop-color="#0093A7"/>
</linearGradient>
</defs>
</svg>
