<svg width="253" height="230" viewBox="0 0 253 230" fill="none" xmlns="http://www.w3.org/2000/svg">
<path d="M238.683 152.484C238.787 152.525 239.83 155.071 239.872 155.384C240.248 158.536 232.964 165.318 226.704 168.261C219.963 171.433 210.342 165.464 207.379 162.96C206.043 161.833 206.168 162.939 204.04 160.268C203.372 159.412 205.02 155.76 206.878 157.471C208.589 159.016 207.796 159.704 209.528 160.664C211.26 161.624 220.464 164.859 222.738 163.315C226.245 160.915 231.316 154.591 232.589 153.381C233.862 152.191 235.886 151.524 238.683 152.484Z" fill="#F3AD85"/>
<path d="M222.905 162.709L226.558 168.762C226.558 168.762 231.044 161.311 232.046 157.868C231.963 157.409 231.65 150.355 229.897 150.063C228.165 149.791 221.945 161.207 222.905 162.709Z" fill="#981C1C"/>
<path d="M232.673 216.197L231.525 225.129C231.525 225.129 231.921 227.07 230.085 228.531C228.436 229.846 224.283 228.615 223.323 228.281C221.34 227.613 227.977 225.651 227.977 225.651L227.81 214.152L232.673 216.197Z" fill="#FFBA93"/>
<path d="M227.977 225.484C227.977 225.484 222.53 226.256 222.426 227.947C222.259 230.263 230.022 230.075 231.316 228.469C232.401 227.112 231.608 225.255 231.608 225.255C231.608 225.255 230.523 226.152 227.977 225.484Z" fill="#1E2223"/>
<path d="M237.597 174.626C237.597 174.626 245.382 170.201 246.676 182.994C247.531 191.488 237.138 203.718 237.138 203.718C237.138 203.718 237.702 213.943 233.069 221.582C232.985 221.832 226.391 221.957 226.391 221.957C226.391 221.957 223.991 204.114 224.575 200.211C225.869 191.509 229.625 184.142 230.168 176.942C230.606 171.057 237.597 174.626 237.597 174.626Z" fill="#1E2223"/>
<path d="M248.324 214.883L250.098 223.731C250.098 223.731 251.1 225.442 249.806 227.404C248.658 229.178 244.338 229.324 243.337 229.324C241.229 229.324 247.135 225.463 247.135 225.463L242.961 214.674L248.324 214.883Z" fill="#FFBA93"/>
<path d="M246.738 225.255C246.738 225.255 241.938 227.488 242.356 229.136C242.94 231.39 250.244 228.74 250.933 226.799C251.517 225.171 250.182 223.648 250.182 223.648C250.182 223.648 249.368 225.067 246.738 225.255Z" fill="#1E2223"/>
<path d="M239.664 173.728C239.664 173.728 245.632 167.05 250.933 178.779C254.46 186.542 246.383 201.547 246.383 201.547C246.383 201.547 252.456 211.189 250.495 219.912C250.495 220.183 244.276 221.644 244.276 221.644C244.276 221.644 236.178 206.055 235.49 202.173C233.945 193.512 235.135 185.332 233.34 178.34C231.9 172.601 239.664 173.728 239.664 173.728Z" fill="#3A3B3A"/>
<path d="M242.105 147.683C242.105 147.683 246.905 149.144 248.971 154.111C251.246 159.579 250.369 174.396 252.644 179.572C254.919 184.726 229.354 188.942 226.975 180.594C224.325 170.598 225.013 150.876 231.462 148.894C231.671 148.998 233.257 152.149 242.105 147.683Z" fill="#FF251B"/>
<path d="M243.295 134.515C244.38 135.913 244.798 139.586 244.589 141.318C244.297 143.969 245.945 148.435 240.144 150.981C234.342 153.527 230.46 149.583 229.584 146.389C229.187 144.991 229.793 143.217 229.73 143.113C229.396 142.487 228.248 137.228 229.709 135.099C231.337 132.72 233.299 132.115 237.18 131.572C240.206 131.155 241.772 132.553 243.295 134.515Z" fill="#FFBA93"/>
<path d="M243.629 142.007C243.629 142.007 245.361 140.734 245.507 142.278C245.653 143.823 243.858 146.076 243.858 146.076L243.629 142.007Z" fill="#FFBA93"/>
<path d="M244.756 141.548C245.048 139.753 244.15 134.661 242.335 132.553C240.164 130.049 236.658 126.71 227.267 131.343C224.471 132.72 225.869 135.183 228.185 133.576C225.472 134.807 223.761 137.645 228.206 136.852C225.598 138.188 227.893 140.296 228.895 139.252C229.479 137.896 230.231 136.894 232.422 135.913C233.737 135.329 237.556 134.056 239.392 134.849C242.606 136.247 243.608 140.65 244.025 142.111C244.15 142.007 244.651 141.652 244.756 141.548Z" fill="#2C2C2C"/>
<path d="M211.573 153.736L214.683 164.755C214.85 165.339 214.224 166.758 213.744 166.675L208.046 164.922C207.838 164.88 207.65 164.692 207.587 164.442L204.749 152.963C204.603 152.358 205.062 151.711 205.563 151.857L211.177 153.318C211.365 153.339 211.511 153.506 211.573 153.736Z" fill="#9D9D9D"/>
<path d="M245.632 154.716C245.736 154.737 247.03 157.179 247.093 157.492C247.782 160.581 241.187 168.052 235.26 171.6C228.874 175.419 218.711 170.431 215.497 168.219C214.057 167.238 214.286 168.323 211.907 165.882C211.156 165.109 212.429 161.311 214.474 162.814C216.311 164.191 215.601 164.963 217.417 165.735C219.232 166.508 228.707 168.845 230.815 167.071C234.071 164.337 238.495 157.555 239.643 156.219C240.811 154.904 242.773 154.049 245.632 154.716Z" fill="#FFBA93"/>
<path d="M236.283 160.038L242.439 166.674C242.439 166.674 248.429 160.455 249.43 157.033C250.223 155.155 247.427 150.375 245.674 150.083C243.921 149.791 235.323 158.535 236.283 160.038Z" fill="#FF6157"/>
<path d="M199.782 62.3489C199.177 62.3489 198.676 62.8497 198.676 63.4758L198.843 83.6147C198.843 84.2199 199.344 84.7208 199.97 84.7208C200.575 84.7208 201.076 84.2199 201.076 83.5938L200.909 63.4549C200.909 62.8497 200.408 62.3489 199.782 62.3489Z" fill="#9D9D9D"/>
<path d="M187.928 29.9388L108.396 30.6066C102.844 30.6483 98.3365 35.2396 98.3782 40.7908L99.8599 217.137C99.9017 222.688 104.493 227.196 110.044 227.154L189.577 226.486C195.128 226.444 199.636 221.853 199.594 216.302L198.113 39.956C198.071 34.4048 193.48 29.897 187.928 29.9388Z" fill="#F6F0EC"/>
<path d="M198.134 44.9854L198.092 40.415C198.05 34.8638 193.459 30.356 187.908 30.3977L108.375 31.0656C102.823 31.1073 98.3156 35.6986 98.3573 41.2498L98.3991 45.8202L198.134 44.9854Z" fill="white"/>
<path d="M99.8391 215.05L99.86 217.637C99.9017 223.189 104.493 227.696 110.044 227.655L189.577 226.987C195.128 226.945 199.636 222.354 199.594 216.803L199.574 214.215L99.8391 215.05Z" fill="white"/>
<path d="M187.407 28.4571L108.875 29.1249C102.197 29.1875 96.8337 34.6553 96.8755 41.3126L98.3572 216.657C98.4198 223.335 103.888 228.698 110.545 228.656L189.076 227.989C195.754 227.926 201.118 222.458 201.076 215.801L199.594 40.4569C199.552 33.7788 194.085 28.3945 187.407 28.4571ZM198.113 215.801C198.154 220.83 194.106 224.942 189.076 224.983L110.545 225.651C105.515 225.693 101.404 221.644 101.362 216.615L99.8806 41.2708C99.8389 36.2413 103.888 32.1301 108.917 32.0883L187.448 31.4205C192.478 31.3788 196.589 35.4274 196.631 40.4569L198.113 215.801Z" fill="#F9CECC"/>
<path d="M137.195 28.8743C137.195 28.9161 137.195 28.9787 137.195 29.0204C137.195 29.73 137.78 30.2935 138.489 30.2935L157.814 30.1265C158.524 30.1265 159.087 29.5422 159.087 28.8326C159.087 28.7909 159.087 28.7283 159.087 28.6865L137.195 28.8743Z" fill="#9D9D9D"/>
<path d="M182.703 35.4169L174.564 35.4856L174.594 38.9916L182.733 38.9229L182.703 35.4169Z" fill="white"/>
<path d="M174.173 36.1357L173.15 36.1443L173.169 38.3356L174.191 38.3269L174.173 36.1357Z" fill="white"/>
<path d="M116.635 37.8268L115.842 37.8335L115.859 39.837L116.652 39.8303L116.635 37.8268Z" fill="white"/>
<path d="M115.338 37.0966L114.545 37.1033L114.568 39.8372L115.361 39.8305L115.338 37.0966Z" fill="white"/>
<path d="M113.874 36.3871L113.081 36.3938L113.111 39.8581L113.904 39.8514L113.874 36.3871Z" fill="white"/>
<path d="M112.515 35.6564L111.722 35.6631L111.757 39.8578L112.55 39.8511L112.515 35.6564Z" fill="white"/>
<path d="M141.307 208.225C141.307 209.102 140.618 209.811 139.741 209.811C138.865 209.811 138.155 209.123 138.155 208.246C138.155 207.37 138.844 206.66 139.721 206.66C140.597 206.66 141.307 207.349 141.307 208.225Z" fill="#F9CECC"/>
<path d="M151.032 208.142C151.032 209.018 150.343 209.728 149.467 209.728C148.59 209.728 147.881 209.039 147.881 208.163C147.881 207.286 148.569 206.577 149.446 206.577C150.322 206.577 151.032 207.265 151.032 208.142Z" fill="white"/>
<path d="M160.778 208.058C160.778 208.935 160.089 209.644 159.213 209.644C158.336 209.644 157.627 208.956 157.627 208.079C157.627 207.203 158.315 206.493 159.192 206.493C160.047 206.493 160.757 207.182 160.778 208.058Z" fill="white"/>
<path d="M190.37 111.079C189.89 106.279 189.473 102.147 189.723 98.6197L189.744 98.2024H189.306C187.636 98.2024 182.482 97.2006 176.304 95.7398C170.732 94.4041 164.325 92.6929 158.878 90.9816C155.644 89.959 152.764 88.9364 150.593 88.0181C150.03 87.7677 149.508 87.5381 149.049 87.3086L148.882 87.2251L148.694 87.3086C146.023 88.6651 141.473 90.2303 136.34 91.7746C125.216 95.1137 111.401 98.2232 108.437 98.2232H107.999L108.02 98.6406C108.249 102.168 107.853 106.321 107.373 111.1C106.079 124.143 104.368 141.423 115.095 159.516C117.495 163.586 120.542 167.676 124.34 171.788C126.448 174.062 128.785 176.337 131.414 178.612C135.776 182.41 140.847 186.187 146.774 189.923C147.379 190.32 148.006 190.695 148.632 191.092L148.84 191.217L149.049 191.092C195.483 162.751 192.415 131.656 190.37 111.079ZM148.882 185.207L148.381 184.893L148.298 184.852C147.818 184.539 147.338 184.226 146.858 183.913C146.712 183.829 146.586 183.725 146.461 183.641C146.294 183.537 146.148 183.433 145.981 183.328C141.014 179.989 136.757 176.629 133.105 173.269C130.496 170.869 128.18 168.469 126.155 166.09C122.295 161.562 119.415 157.054 117.286 152.63C110.065 137.625 111.484 123.454 112.632 111.809C112.903 108.992 113.175 106.341 113.3 103.879L113.342 103.044L113.655 102.981L114.155 102.898C119.602 101.854 126.364 100.143 128.326 99.6423C129.974 99.225 132.061 98.6615 134.378 97.9937C139.011 96.6789 144.437 95.0093 148.465 93.3398L148.861 93.1729L148.945 93.2146L149.258 93.3398C151.595 94.2998 154.392 95.2598 157.23 96.1572C161.758 97.5763 166.371 98.8284 169.397 99.6215C170.294 99.851 172.256 100.352 174.635 100.915C177.369 101.562 180.645 102.314 183.567 102.877L184.381 103.023L184.422 103.858C184.548 106.321 184.819 108.971 185.09 111.788C187.052 131.614 189.765 158.786 149.425 184.81L148.882 185.207Z" fill="white"/>
<path d="M170.69 121.931C169.793 121.033 168.332 121.033 167.435 121.931L144.395 144.97L134.461 135.037C133.564 134.139 132.103 134.139 131.206 135.037C130.308 135.934 130.308 137.395 131.206 138.292L142.725 149.812C143.185 150.271 143.79 150.48 144.374 150.48C144.979 150.48 145.564 150.271 146.023 149.812L170.669 125.165C171.588 124.268 171.588 122.828 170.69 121.931Z" fill="#FF6157"/>
<path d="M126.281 49.9316H106.705V69.5071H126.281V49.9316Z" fill="white"/>
<path d="M121.647 67.4409C121.439 62.7661 119.205 59.0723 116.492 59.0723C113.779 59.0723 111.546 62.7661 111.338 67.4409H121.647Z" fill="#F6F0EC"/>
<path d="M119.498 55.0236C119.498 56.6932 118.141 58.0497 116.472 58.0497C114.802 58.0497 113.446 56.6932 113.446 55.0236C113.446 53.3541 114.802 51.9976 116.472 51.9976C118.162 52.0184 119.498 53.3541 119.498 55.0236Z" fill="#F6F0EC"/>
<path d="M152.555 52.3315H133.063V55.4828H152.555V52.3315Z" fill="white"/>
<path d="M189.806 52.3315H179.706V55.4828H189.806V52.3315Z" fill="white"/>
<path d="M173.695 61.9939H133.063V65.1452H173.695V61.9939Z" fill="white"/>
<path d="M172.214 52.3315H159.65V55.4828H172.214V52.3315Z" fill="white"/>
<path d="M92.618 66.9401L86.3572 66.7314C85.9398 66.7105 85.5851 67.0444 85.5642 67.4618L85.1051 81.5904C85.0842 82.0077 85.4181 82.3625 85.8355 82.3834L92.0963 82.5921C92.5137 82.6129 92.8684 82.279 92.8893 81.8617L93.3484 67.7331C93.3693 67.3157 93.0354 66.961 92.618 66.9401Z" fill="#9D9D9D"/>
<path d="M87.213 68.6722C87.0043 68.9018 86.6495 68.9226 86.42 68.7139C86.1904 68.5053 86.1695 68.1505 86.3782 67.9209C86.5869 67.6914 86.9417 67.6705 87.1713 67.8792C87.4008 68.0879 87.4217 68.4426 87.213 68.6722Z" fill="#7A7A7A"/>
<path d="M87.1086 68.5886C86.9416 68.7556 86.6703 68.7765 86.5033 68.6095C86.3364 68.4426 86.3155 68.1713 86.4825 68.0043C86.6494 67.8374 86.9207 67.8165 87.0877 67.9834C87.2546 68.1504 87.2755 68.4008 87.1086 68.5886Z" fill="white"/>
<path d="M92.6598 88.8319L87.1503 88.2266C88.319 85.8684 88.6946 84.3867 88.6946 84.3867C88.6946 84.3867 88.5694 82.4876 88.4233 80.4841C87.9851 74.4738 94.1415 77.0616 94.1415 77.0616C94.1415 77.0616 95.3728 79.3154 92.8894 85.2632C92.952 86.3067 92.8685 87.538 92.6598 88.8319Z" fill="#FFBA93"/>
<path d="M69.1818 77.4164C69.1818 76.8112 74.9626 85.1589 77.5712 97.1796C79.0112 103.795 80.806 104.463 81.119 103.607C82.8094 98.8074 86.7537 84.2407 86.7537 84.2407C86.7537 84.2407 89.4041 84.1363 93.6823 86.3485C94.1206 86.578 85.5016 117.152 80.8686 116.421C77.3625 115.879 69.0357 104.192 69.3278 101.145C69.8913 95.6144 69.1192 81.8407 69.1818 77.4164Z" fill="#ECECEC"/>
<path d="M53.3419 213.839L52.7785 223.126C52.7785 223.126 50.9628 224.754 52.8202 226.298C54.6567 227.863 59.1227 228.26 60.0827 227.926C62.1071 227.195 56.055 223.835 56.055 223.835L56.7019 212.336L53.3419 213.839Z" fill="#FFBA93"/>
<path d="M65.6758 129.903C65.634 129.047 65.5088 126.981 65.5088 126.981C57.7037 114.856 41.8013 125.395 38.8378 128.985C50.0655 144.678 52.215 222.375 52.215 222.375C52.215 222.375 56.6185 222.479 56.8689 222.375C68.5766 180.573 66.0514 137.562 65.6758 129.903Z" fill="#1E2223"/>
<path d="M56.3054 223.397C56.3054 223.397 64.9453 225.359 65.4253 227.258C66.1974 230.284 53.3419 229.199 51.7767 227.529C50.2741 225.922 52.1732 223.731 52.1732 223.731C52.1732 223.731 53.7176 225.275 56.3054 223.397Z" fill="#1E2223"/>
<path d="M17.1755 214.256L14.2329 223.084C14.2329 223.084 12.0625 224.19 13.4607 226.173C14.8381 228.155 23.4989 228.594 24.5215 228.51C26.671 228.343 17.2172 224.608 17.2172 224.608L20.8067 213.672L17.1755 214.256Z" fill="#FFBA93"/>
<path d="M50.6081 136.998C50.7959 136.164 51.4428 131.823 51.4428 131.823C47.0394 118.091 31.9509 128.985 28.1527 131.677C27.9649 155.238 13.8572 221.582 13.8572 221.582C13.8572 221.582 18.3858 222.041 18.6572 221.999C41.0708 184.685 49.0011 144.49 50.6081 136.998Z" fill="#3A3B3A"/>
<path d="M17.8851 223.105C17.8851 223.105 26.358 225.735 26.6919 227.655C27.2345 230.722 14.7755 228.385 13.0642 226.883C10.9564 225.004 14.2538 222.417 14.2538 222.417C14.2538 222.417 15.172 224.775 17.8851 223.105Z" fill="#1E2223"/>
<path d="M43.3664 63.5801L41.6134 78.2721C41.6134 78.2721 48.5838 83.7816 51.902 83.6981C55.7628 83.6146 50.9002 63.6844 50.9002 63.6844L43.3664 63.5801Z" fill="url(#paint0_linear_46_467)"/>
<path d="M70.2044 78.2929C68.2427 75.0164 52.6533 70.8843 52.7577 72.053C52.7994 72.4078 52.7785 74.2651 49.5438 75.5382C45.0152 77.3329 42.3021 73.326 42.3021 73.326C37.6274 73.2217 27.4015 75.3921 25.6484 78.6268C21.5789 86.1189 29.551 97.5553 28.0275 134.306C27.9858 135.517 57.2655 135.663 65.6549 131.322C72.3331 103.44 73.0009 82.9676 70.2044 78.2929Z" fill="#F1F1F1"/>
<path d="M47.5612 74.4111C47.2064 74.9537 44.3473 77.9798 44.3473 77.9798L49.2725 80.9015C49.2725 80.9015 53.1959 105.319 51.9437 123.412C52.9037 126.23 53.5715 126.856 53.5715 126.856L55.7211 123.83C55.7211 123.83 57.2654 98.4526 51.6307 80.1085C51.6098 80.1293 52.5489 76.3311 52.5489 76.3311L47.5612 74.4111Z" fill="#FF251B"/>
<path d="M37.7317 73.6808C37.7317 73.6808 39.3178 77.3121 44.6812 80.192C45.3907 79.1694 48.7298 75.3504 48.7298 75.3504L53.3419 78.2929C53.3419 78.2929 56.201 75.8721 55.721 72.3452C54.7819 71.8652 52.6324 71.6565 52.6324 71.6565C52.6324 71.6565 48.9594 76.4773 41.7595 72.9921C40.0482 73.1591 37.7317 73.6808 37.7317 73.6808Z" fill="#ECECEC"/>
<path d="M47.2272 47.2394C46.7055 47.6568 39.5265 52.4985 44.076 62.3488C45.6412 67.2531 52.9872 68.3592 55.0324 61.0758C57.0776 53.7924 52.9454 42.6273 47.2272 47.2394Z" fill="#FFBA93"/>
<path d="M43.3038 50.036C43.3038 50.036 45.3281 40.1857 56.0758 42.5022C56.535 42.6065 56.9732 42.8152 57.2863 43.1909C58.4341 44.5265 56.5767 46.0708 54.9489 46.3421C57.3489 46.05 59.6028 48.1995 56.055 49.6395C57.1611 50.1821 56.9315 52.6238 55.0533 53.1664C55.095 52.9786 54.3646 50.0777 52.215 49.556C50.9211 49.243 47.3107 48.763 46.0586 49.9317C43.3873 52.4568 42.5734 56.7977 42.5734 56.7977C42.5734 56.7977 42.1351 52.6864 43.3038 50.036Z" fill="#2C2C2C"/>
<path d="M43.5543 54.3559C43.5543 54.3559 40.9456 52.3107 41.2378 55.1907C41.4674 57.4654 43.6378 57.2985 43.6378 57.2985L43.5543 54.3559Z" fill="#FFBA93"/>
<path d="M52.1525 60.0949C51.9646 59.8862 51.6933 59.7818 51.422 59.7818C51.2342 59.7818 51.0255 59.7818 50.8794 59.761C50.5664 59.7192 50.2533 59.8653 50.0447 60.0949C48.6673 61.6183 46.2256 63.2461 44.1804 59.1349C43.2204 57.0271 42.6152 57.194 42.6152 57.194C42.6152 57.194 39.9022 69.0687 48.6047 72.4913C53.9472 74.5991 60.7089 67.7748 55.3037 59.3018C54.5524 61.7018 53.1542 61.1383 52.1525 60.0949Z" fill="#2C2C2C"/>
<path d="M28.0484 131.927L27.9649 135.204C27.9649 135.204 60.3749 136.831 65.8427 133.054C66.0305 132.95 65.9053 130.905 65.9053 130.905C65.9053 130.905 39.2969 133.764 28.0484 131.927Z" fill="#333333"/>
<path d="M53.6967 135.642L46.7264 135.913C46.4551 135.934 46.2046 135.704 46.2046 135.412L46.1003 132.595C46.0794 132.324 46.309 132.073 46.6012 132.073L53.5715 131.802C53.8428 131.781 54.0932 132.011 54.0932 132.303L54.1976 135.12C54.1976 135.391 53.968 135.621 53.6967 135.642Z" fill="black"/>
<path d="M11.1859 149.916L11.2068 148.226C11.2277 146.577 12.5842 145.221 14.2328 145.242L18.4693 145.263C20.118 145.283 21.4745 146.64 21.4536 148.289L21.4327 149.979L23.4571 150L23.4779 148.31C23.4988 145.534 21.2449 143.259 18.4693 143.238L14.2328 143.217C11.4572 143.197 9.18246 145.45 9.16159 148.226L9.14072 149.916H11.1859Z" fill="#3A3B3A"/>
<path d="M29.3214 151.273L3.29731 151.085C1.98254 151.085 0.918207 152.129 0.918207 153.443L0.792992 171.349C0.792992 172.664 1.83646 173.728 3.15122 173.728L29.1753 173.916C30.49 173.916 31.5544 172.873 31.5544 171.558L31.6796 153.652C31.6796 152.337 30.6152 151.273 29.3214 151.273Z" fill="#FF251B"/>
<path d="M30.5109 148.748L2.12867 148.56C1.00173 148.56 0.104347 149.457 0.0834776 150.563L0 161.269C0 162.396 0.89738 163.294 2.00345 163.314L30.3857 163.502C31.5127 163.502 32.41 162.605 32.4309 161.499L32.5144 150.793C32.5353 149.666 31.6379 148.748 30.5109 148.748Z" fill="#FF6157"/>
<path d="M16.2363 161.374C15.4641 161.374 14.8172 162 14.8172 162.772L14.7963 164.796C14.7963 165.569 15.4224 166.215 16.1946 166.215C16.9667 166.215 17.6137 165.589 17.6137 164.817L17.6346 162.793C17.6346 162.021 17.0085 161.374 16.2363 161.374Z" fill="#3A3B3A"/>
<path d="M17.0502 132.24L17.7806 139.524C17.7806 139.524 19.1371 140.88 19.8258 141.631C20.1597 141.986 20.2223 142.654 20.3058 143.948C20.4102 145.764 20.0554 147.37 18.2398 147.37C17.405 147.37 15.1928 146.974 14.1911 146.39C12.3129 145.304 12.1668 142.633 12.2294 141.36C12.2503 140.943 12.3755 140.525 12.605 140.171L13.1476 139.336L13.5233 131.719L17.0502 132.24Z" fill="#FFBA93"/>
<path d="M26.4414 99.2456C26.4414 99.2456 21.0363 106.133 18.845 139.336C17.885 139.836 12.7303 139.252 12.7303 139.252C12.7303 139.252 5.88517 103.482 22.0171 81.6528C23.6241 79.4824 25.9406 77.8128 26.9214 77.1868C28.1527 78.3763 25.6693 96.5744 26.4414 99.2456Z" fill="#F4F4F4"/>
<path d="M30.8658 0.0330002C38.0032 0.554733 43.3666 6.64858 42.8657 13.6815C42.657 16.5824 41.4883 19.1702 39.6727 21.1945L40.0901 27.2675L34.8519 24.5753C33.0571 25.2849 31.0954 25.6188 29.0293 25.4727C21.892 24.951 16.5286 18.8363 17.0295 11.8242C17.5304 4.79121 23.7285 -0.467863 30.8658 0.0330002Z" fill="#F5F5F1"/>
<path d="M37.6275 7.85886C37.2728 7.50408 36.7093 7.50408 36.3754 7.85886L27.4642 16.7909L23.6242 12.951C23.2695 12.5962 22.706 12.5962 22.3721 12.951C22.0173 13.3058 22.0173 13.8692 22.3721 14.2031L26.8381 18.6692C27.0051 18.8361 27.2555 18.9405 27.4851 18.9196C27.7146 18.9196 27.9442 18.8361 28.132 18.6692L37.6693 9.13188C37.9615 8.75624 37.9615 8.19277 37.6275 7.85886Z" fill="#FF251B"/>
<defs>
<linearGradient id="paint0_linear_46_467" x1="41.1027" y1="74.5337" x2="52.7583" y2="72.966" gradientUnits="userSpaceOnUse">
<stop stop-color="#DBBBC2"/>
<stop offset="1" stop-color="#D9A1AB"/>
</linearGradient>
</defs>
</svg>
