<svg width="267" height="221" viewBox="0 0 267 221" fill="none" xmlns="http://www.w3.org/2000/svg">
<g clip-path="url(#clip0_64_2487)">
<path d="M180.624 33.1296C185.884 37.9336 192.984 39.5907 199.898 40.0035C203.873 40.2361 207.857 40.107 211.837 40.2035C213.821 40.2524 215.806 40.3594 217.778 40.5978L218.107 40.6385C218.062 40.6385 217.794 40.5931 218.059 40.6385C218.29 40.6733 218.528 40.7071 218.762 40.7443C219.224 40.8218 219.686 40.9036 220.148 40.9896C220.999 41.1571 221.846 41.3509 222.69 41.5711C223.691 41.8347 224.681 42.1359 225.661 42.4747C226.134 42.639 226.605 42.8115 227.071 42.9922C227.29 43.0767 227.508 43.1631 227.724 43.2515L228.001 43.3678C228.593 43.6131 227.77 43.2619 228.117 43.4166C229.977 44.2501 231.781 45.2033 233.52 46.2704C234.516 46.8937 236.029 46.518 236.583 45.4621C237.161 44.3574 236.843 43.0433 235.774 42.3781C229.299 38.3289 221.965 36.2276 214.382 35.802C210.444 35.5822 206.498 35.7136 202.557 35.6124C200.78 35.5671 199.002 35.4752 197.234 35.274L196.684 35.2089C196.579 35.1961 196.246 35.174 196.731 35.2159C196.639 35.2089 196.547 35.1903 196.456 35.1775C196.03 35.1147 195.606 35.0457 195.185 34.9705C194.399 34.8294 193.617 34.6623 192.841 34.4693C191.953 34.2472 191.073 33.9867 190.209 33.682C189.779 33.5308 189.357 33.3599 188.938 33.1948C189.375 33.3657 188.797 33.132 188.64 33.0599C188.448 32.973 188.257 32.8823 188.068 32.7878C187.256 32.3909 186.471 31.9418 185.716 31.4434C185.338 31.1923 184.97 30.9306 184.612 30.6538C184.988 30.9446 184.46 30.5224 184.358 30.4341C184.172 30.2759 183.99 30.1143 183.81 29.9491C182.944 29.1572 181.489 29.0188 180.644 29.9491C179.856 30.8132 179.72 32.29 180.644 33.1366L180.624 33.1296Z" fill="#DAEFF2"/>
<path d="M34.4 24.3044C35.683 23.1043 37.0091 21.9534 38.3784 20.8518C38.5563 20.7099 38.7353 20.5703 38.9132 20.4273C39.1119 20.268 38.8716 20.4587 38.8439 20.4796L39.075 20.3006C39.4354 20.0238 39.7989 19.7501 40.1654 19.4796C40.8716 18.9586 41.5875 18.4512 42.3129 17.9573C45.2164 15.9835 48.2644 14.2341 51.4307 12.7243C51.8997 12.501 52.371 12.2828 52.8446 12.0696C53.051 11.975 53.2586 11.8828 53.4673 11.7928L53.7353 11.6765C54.3129 11.4265 53.4938 11.7742 53.8277 11.6358C54.7518 11.2486 55.691 10.8765 56.6348 10.5264C57.731 10.1194 58.5986 8.97978 58.1989 7.75409C57.8523 6.6726 56.6209 5.74228 55.4449 6.17953C48.4081 8.79159 41.815 12.4836 35.8994 17.1247C34.2821 18.3876 32.7265 19.7199 31.2325 21.1216C30.3719 21.9263 30.3638 23.5067 31.2325 24.3091C31.6582 24.7205 32.2255 24.9502 32.8156 24.9502C33.4058 24.9502 33.9731 24.7205 34.3988 24.3091L34.4 24.3044Z" fill="#DAEFF2"/>
<path d="M15.0069 77.7116C15.0069 77.9895 15.0069 78.2663 14.9849 78.5431C14.9768 78.6593 14.9653 78.764 14.9572 78.8745C14.9145 79.4187 15.0207 78.5396 14.9641 78.8512C14.8781 79.3696 14.7624 79.8825 14.6176 80.3874C14.5379 80.6526 14.4397 80.9107 14.3484 81.1712C14.2075 81.5747 14.472 80.92 14.3484 81.1712C14.2884 81.2968 14.2329 81.4236 14.174 81.548C13.9439 82.0203 13.683 82.4767 13.3931 82.9144C13.261 83.1261 13.1167 83.33 12.9611 83.5249C13.1413 83.3121 13.1216 83.3179 12.9495 83.5249C12.8606 83.6307 12.7705 83.7366 12.678 83.8389C12.3277 84.2297 11.9514 84.5961 11.5517 84.9355C11.5102 84.9715 11.4674 85.0064 11.4247 85.0413C11.2976 85.1452 11.3407 85.1134 11.5541 84.946C11.5541 84.9901 11.323 85.1146 11.2884 85.1425C11.0643 85.303 10.8355 85.4553 10.5953 85.5983C10.355 85.7414 10.1193 85.8751 9.87328 85.9995C9.77509 86.0496 9.67575 86.0949 9.5764 86.1437C9.07043 86.3914 10.0258 85.9681 9.50247 86.1763C8.41661 86.6089 7.53867 87.7043 7.93836 88.9486C8.27914 90.008 9.52673 90.9872 10.6923 90.5232C15.8698 88.4614 19.5097 83.383 19.4797 77.7104C19.4797 76.5324 18.4551 75.4021 17.241 75.4567C16.0269 75.5114 14.9953 76.4475 15.0023 77.7104L15.0069 77.7116Z" fill="#DAEFF2"/>
<path d="M255.099 152.418C255.266 155.064 255.227 157.718 254.984 160.357C254.954 160.683 254.921 161.008 254.885 161.332C254.868 161.476 254.851 161.62 254.834 161.765C254.828 161.816 254.755 162.383 254.791 162.113C254.822 161.881 254.762 162.313 254.756 162.353C254.731 162.533 254.703 162.712 254.675 162.891C254.626 163.215 254.572 163.537 254.516 163.858C254.285 165.181 253.996 166.493 253.664 167.793C253.371 168.933 254.036 170.292 255.227 170.565C256.394 170.833 257.667 170.216 257.982 168.991C259.373 163.585 259.911 157.993 259.576 152.42C259.503 151.245 258.598 150.109 257.337 150.166C256.182 150.218 255.02 151.16 255.097 152.42L255.099 152.418Z" fill="#E9F4F6"/>
<mask id="mask0_64_2487" style="mask-type:luminance" maskUnits="userSpaceOnUse" x="-7" y="4" width="264" height="209">
<path d="M254.187 121.885C246.743 155.144 256.308 185.421 230.942 201.262C222.684 206.421 210.727 210.048 193.269 211.749C189.572 212.11 185.628 212.381 181.436 212.563C175.16 212.838 168.296 212.912 160.788 212.772C153.636 212.64 145.901 212.307 137.53 211.783C121.966 210.797 106.888 209.328 92.7201 207.22C85.4817 206.143 78.4814 204.894 71.7756 203.467C68.079 202.679 64.478 201.832 60.9724 200.927C58.9493 200.404 56.9605 199.861 55.0059 199.299L54.2655 199.085C51.5408 198.287 48.8858 197.449 46.3005 196.57C43.5135 195.621 40.8131 194.62 38.1993 193.568C27.0923 189.094 17.6372 183.673 10.3261 177.131C-1.84827 166.243 -8.11163 152.239 -6.23794 134.297C-3.0381 103.686 29.6314 87.6485 26.4027 74.4903C16.4104 33.7681 44.2143 8.6507 93.3011 4.7864C155.421 -0.104734 174.489 45.0714 199.857 42.7852C240.969 39.0802 265.538 71.1749 254.187 121.885Z" fill="white"/>
</mask>
<g mask="url(#mask0_64_2487)">
<g opacity="0.7">
<path d="M156.357 224.07C143.053 224.738 128.294 220.936 121.356 209.966C119.327 206.762 118.069 202.884 118.912 199.177C119.756 195.47 123.146 192.147 127.033 192.199C130.398 192.24 133.61 194.642 136.863 193.751C139.135 193.13 140.708 190.997 141.327 188.781C141.947 186.564 141.79 184.232 141.726 181.944C141.642 178.966 141.72 175.987 141.957 173.018C142.237 169.502 142.86 165.745 145.36 163.167C147.86 160.589 152.833 160.079 154.785 163.019C155.709 164.414 155.756 166.175 156.287 167.75C156.818 169.324 158.299 170.889 159.964 170.495C160.617 170.339 161.162 169.903 161.638 169.438C165.311 165.855 166.056 160.262 169.337 156.335C170.954 154.394 173.119 152.962 175.305 151.647C185.166 145.735 197.253 141.738 208.17 145.135C210.306 145.8 212.416 146.786 213.852 148.455C216.577 151.623 216.15 156.568 213.906 160.136C211.661 163.704 207.978 166.166 204.292 168.317C200.607 170.468 196.741 172.473 193.767 175.497C196.897 176.791 200.307 177.242 203.663 176.806C205.396 176.581 207.264 176.14 208.817 176.898C211.294 178.106 211.359 181.835 209.559 183.93C207.759 186.026 204.854 186.829 202.102 187.28C194.747 188.489 186.546 188.243 180.802 192.927C180.032 193.557 179.27 194.401 179.357 195.37C179.417 196.035 179.872 196.596 180.371 197.049C182.859 199.304 186.533 199.683 189.692 200.919C190.425 201.206 191.156 201.557 191.673 202.135C193.717 204.421 191.154 207.869 188.67 209.756C179.282 216.868 169.411 222.479 156.37 224.072L156.357 224.07Z" fill="#FFF1F0"/>
</g>
<path d="M46.8712 205.135C54.3255 208.74 63.694 210.151 70.3131 205.579C72.2469 204.243 73.9034 202.337 74.3146 200.018C74.7259 197.699 73.5869 194.984 71.3493 194.067C69.4132 193.273 67.0001 193.866 65.3482 192.575C64.193 191.672 63.8106 190.074 63.9908 188.659C64.171 187.243 64.8226 185.954 65.4117 184.664C66.1782 182.987 66.8534 181.27 67.4344 179.519C68.1275 177.447 68.6728 175.153 67.863 173.076C67.0532 170.999 64.3293 169.503 62.5018 170.707C61.6389 171.276 61.1861 172.272 60.5011 173.041C59.816 173.81 58.5904 174.346 57.7286 173.715C57.3925 173.468 57.1857 173.086 57.0251 172.706C55.7868 169.772 56.1888 168.615 55.5927 164.595C55.3617 163.045 54.4272 160.525 53.4926 159.246C49.2728 153.483 43.319 148.274 36.2459 147.565C34.8597 147.427 33.418 147.478 32.1935 148.082C29.8693 149.227 28.9198 152.152 29.3437 154.73C29.7677 157.308 31.2844 159.605 32.8751 161.726C34.4658 163.847 36.1951 165.926 37.1689 168.372C35.0672 168.35 33.0071 167.78 31.1897 166.717C30.2505 166.167 29.2894 165.464 28.2163 165.519C26.5078 165.608 25.5732 167.72 26.0965 169.35C26.6198 170.98 28.0904 172.141 29.562 173.071C33.4815 175.542 38.2362 177.39 40.3941 181.455C40.6841 182 40.9162 182.666 40.6321 183.199C40.438 183.563 40.0418 183.773 39.6467 183.911C37.6829 184.592 35.4881 183.919 33.3764 183.858C32.8889 183.843 32.3853 183.866 31.9498 184.071C30.2286 184.885 30.8639 187.467 31.8343 189.146C35.4915 195.474 39.7888 201.064 46.8712 205.135Z" fill="#FFF0EF"/>
<path d="M75.5622 254.317L140.585 246.545C141.412 240.753 132.93 146.397 135.51 144.019C136.164 143.408 136.886 142.875 137.662 142.432C140.648 140.749 143.483 138.806 146.134 136.626C148.376 134.78 150.462 132.752 152.372 130.56C152.988 129.855 153.577 129.142 154.138 128.422C155.419 126.783 156.6 125.066 157.673 123.282C158.871 121.293 159.937 119.226 160.863 117.095C161.332 116.004 161.76 114.921 162.147 113.848C162.646 112.472 163.071 111.114 163.442 109.786C163.573 109.321 163.694 108.864 163.806 108.407C163.86 108.2 163.909 107.994 163.961 107.789C164.013 107.583 164.06 107.364 164.107 107.154C164.161 106.921 164.212 106.692 164.262 106.468C164.352 106.049 164.438 105.635 164.514 105.226C164.992 102.752 165.314 100.251 165.48 97.7365C165.505 97.3714 165.523 97.0167 165.541 96.6702C165.57 96.0666 165.588 95.4898 165.596 94.9479C165.596 94.8084 165.599 94.6712 165.603 94.5363V94.3037C165.624 91.1732 165.372 89.2788 165.372 89.2788L162.533 89.7323L159.67 90.2103L158.475 90.4115L100.34 100.144L97.9818 100.538L97.4782 100.622L79.9299 103.56C80.1529 105.868 79.5106 109.924 78.2988 115.111C78.2803 115.187 78.263 115.265 78.2445 115.344C78.2041 115.522 78.1613 115.701 78.1186 115.88C77.772 117.357 77.3689 118.918 76.9345 120.55C76.9276 120.578 76.9195 120.604 76.9126 120.634C76.8768 120.765 76.8421 120.898 76.8063 121.029C76.7439 121.262 76.64 125.797 76.5106 133.132C76.2692 146.335 75.933 168.606 75.5622 191.094C74.9707 226.585 76.1028 252.498 75.5622 254.317Z" fill="#FDBAA0"/>
<path d="M97.3233 131.077L151.418 137.221C153.728 137.484 155.84 136.036 156.136 133.987L168.265 50.0381C168.562 47.9902 166.93 46.1156 164.619 45.8516L110.529 39.7081C108.219 39.4452 106.106 40.893 105.81 42.9421L93.6811 126.891C93.3819 128.939 95.0141 130.814 97.3233 131.077Z" fill="#F9CECC"/>
<path d="M98.4682 124.439L152.198 130.547C153.089 130.649 153.905 130.089 154.019 129.299L165.536 49.6554C165.652 48.8635 165.02 48.1436 164.128 48.039L110.393 41.9303C109.501 41.8291 108.686 42.3885 108.571 43.1792L97.06 122.822C96.9457 123.615 97.5764 124.338 98.4682 124.439Z" fill="#DDF1F3"/>
<path d="M80.1125 129.589C86.3065 138.427 100.39 98.4656 100.238 88.4717C100.136 81.699 101.624 75.1809 102.75 71.0282C104.838 63.1868 105.244 55.842 98.8967 53.6453C96.3011 52.7417 95.1136 53.1336 94.2137 54.8791C93.4536 56.3234 92.876 58.7016 91.856 62.0274C91.313 63.7718 90.65 65.7754 89.7501 68.0477C89.3943 68.9509 89.0042 69.8995 88.5799 70.8933C84.4675 80.3256 77.7097 97.8016 76.7174 112.259C76.6816 112.773 76.6527 113.281 76.6331 113.787C76.3963 120.018 77.3123 125.601 80.1125 129.589Z" fill="#FDBAA0"/>
<path d="M171.498 70.648C164.705 70.6701 157.858 71.2934 158.15 78.4394C158.44 85.5493 172.735 85.4912 175.082 80.1349C176.301 77.3474 176.962 70.6305 171.498 70.648Z" fill="#FDBAA0"/>
<path d="M171.931 74.6438C171.931 74.6438 172.384 78.2942 171.238 79.3617C170.092 80.4292 166.324 81.4852 165.959 81.1793C165.594 80.8735 166.344 79.1198 166.19 76.9673C166.075 75.2846 164.734 73.6228 165.709 73.2112C166.684 72.7995 171.696 73.3681 171.931 74.6438Z" fill="#FFD4C4"/>
<path d="M173.407 82.7014C166.032 82.4107 158.566 82.7665 158.47 90.4684C158.375 98.1342 173.894 98.7249 176.749 93.0733C178.233 90.1323 179.337 82.934 173.407 82.7014Z" fill="#FDBAA0"/>
<path d="M174.007 87.4658C174.007 87.4658 174.689 90.8196 173.38 91.9162C172.071 93.0128 167.163 94.1257 166.785 93.7768C166.407 93.4279 167.322 91.5778 167.281 89.2543C167.25 87.439 165.895 85.5889 166.976 85.19C168.057 84.7911 173.825 86.0808 174.007 87.4658Z" fill="#FFD4C4"/>
<path d="M166.839 94.4141C159.852 94.913 152.862 96.034 153.801 103.368C154.733 110.662 169.434 109.599 171.37 103.925C172.377 100.968 172.458 94.0129 166.839 94.4141Z" fill="#FDBAA0"/>
<path d="M167.751 98.9552C167.751 98.9552 168.791 102.429 167.701 103.607C166.612 104.785 162.479 105.924 162.077 105.635C161.675 105.345 162.289 103.489 161.941 101.286C161.669 99.5634 160.145 97.9482 161.111 97.4551C162.077 96.962 167.394 97.6586 167.751 98.9552Z" fill="#FFD4C4"/>
<path d="M162.562 106.251C157.146 106.742 151.742 107.715 152.607 113.391C153.466 119.041 164.861 118 166.258 113.566C166.985 111.26 166.923 105.858 162.562 106.251Z" fill="#FDBAA0"/>
<path d="M163.429 109.647C163.429 109.647 164.007 112.128 163.183 113.06C162.36 113.991 159.392 115.254 159.074 115.037C158.757 114.819 159.199 113.368 158.887 111.664C158.644 110.332 157.431 109.099 158.172 108.703C158.914 108.306 163.128 108.647 163.429 109.647Z" fill="#FFD4C4"/>
<path d="M163.457 83.6899C163.471 83.6923 163.484 83.6923 163.498 83.6899C166.395 82.8759 172.434 82.7933 172.495 82.7933C172.528 82.7946 172.559 82.7832 172.584 82.7616C172.608 82.7399 172.623 82.7096 172.626 82.677C172.622 82.6439 172.606 82.6134 172.581 82.5918C172.556 82.5702 172.524 82.559 172.491 82.5607C172.429 82.5607 166.352 82.6503 163.418 83.4689C163.402 83.4723 163.387 83.4788 163.374 83.4883C163.361 83.4977 163.35 83.5097 163.342 83.5236C163.334 83.5375 163.329 83.5529 163.327 83.5689C163.325 83.5849 163.327 83.6012 163.331 83.6166C163.343 83.6399 163.361 83.6593 163.383 83.6723C163.406 83.6854 163.431 83.6915 163.457 83.6899Z" fill="#FDBAA0"/>
<path d="M91.8871 62.0554C92.0839 62.2968 92.3477 62.4738 92.6449 62.5636C95.8262 63.6393 96.8035 59.3994 97.5116 57.2143C98.2197 55.0292 94.1732 54.8757 94.1732 54.8757C93.4235 56.3294 92.8817 58.7133 91.8871 62.0554Z" fill="#FFD4C4"/>
<path d="M88.3535 129.827C88.3938 129.827 88.4339 129.819 88.4708 129.803C88.5078 129.786 88.5407 129.762 88.5672 129.731C88.5877 129.707 88.6028 129.678 88.6112 129.648C88.6196 129.617 88.6212 129.585 88.6159 129.553C88.6107 129.522 88.5986 129.492 88.5806 129.465C88.5626 129.439 88.5391 129.417 88.5117 129.401C80.578 124.211 78.5276 115.382 78.5079 115.294C78.4888 115.229 78.4458 115.174 78.3876 115.139C78.3295 115.105 78.2606 115.094 78.1949 115.109C78.1627 115.113 78.1317 115.123 78.1035 115.139C78.0754 115.155 78.0508 115.176 78.0312 115.202C78.0117 115.228 77.9975 115.258 77.9897 115.289C77.9819 115.321 77.9806 115.354 77.9858 115.386C78.0066 115.477 80.0986 124.483 88.1964 129.781C88.2432 129.812 88.2978 129.827 88.3535 129.827Z" fill="#FDBAA0"/>
<path d="M171.898 108.47C172 108.471 172.1 108.435 172.177 108.368C174.704 106.158 175.217 103.804 175.202 102.219C175.201 101.198 174.978 100.188 174.547 99.2633C174.494 99.175 174.411 99.1089 174.314 99.0772C174.216 99.0456 174.111 99.0505 174.017 99.0912C173.972 99.1065 173.931 99.1312 173.896 99.1638C173.861 99.1963 173.834 99.2359 173.816 99.2799C173.798 99.3239 173.789 99.3713 173.79 99.419C173.791 99.4666 173.803 99.5134 173.824 99.5563C173.921 99.7435 176.046 103.985 171.617 107.859C171.581 107.89 171.552 107.928 171.531 107.971C171.511 108.015 171.501 108.062 171.501 108.109C171.501 108.157 171.511 108.204 171.531 108.247C171.552 108.291 171.581 108.329 171.617 108.359C171.694 108.43 171.794 108.469 171.898 108.47Z" fill="#FFCFBF"/>
<g opacity="0.7">
<path d="M108.445 76.7567C108.445 76.7567 109.807 44.6154 114.234 44.648C118.661 44.6805 127.934 45.7795 126.533 47.5703C125.132 49.3612 119.864 47.5494 117.561 51.6265C115.257 55.7036 108.24 80.5884 108.445 76.7567Z" fill="white"/>
</g>
<path d="M123.516 129.155L126.429 129.612C127.028 129.705 127.719 129.788 128.143 130.22C128.567 130.651 128.456 131.307 127.999 131.701C127.471 132.155 126.666 132.159 125.981 132.122C125.134 132.061 124.292 131.943 123.46 131.768C122.759 131.633 121.937 131.508 121.527 130.917C121.197 130.442 121.321 129.871 121.79 129.513C122.374 129.059 123.165 129.136 123.876 129.229C124.338 129.291 124.143 129.916 123.681 129.856C123.219 129.795 122.489 129.691 122.165 130.106C121.777 130.605 122.599 130.92 123.017 131.014C124.086 131.262 125.224 131.47 126.332 131.486C126.785 131.486 127.523 131.466 127.672 130.98C127.807 130.541 127.126 130.392 126.779 130.326C125.637 130.107 124.469 129.962 123.321 129.781C122.859 129.709 123.054 129.084 123.516 129.155Z" fill="#8FD7E3"/>
<path d="M168.925 75.1659C168.81 75.1283 168.687 75.1225 168.57 75.1491C168.452 75.1757 168.343 75.2337 168.256 75.3171C167.932 75.6229 167.415 75.1624 167.738 74.8578C167.924 74.6912 168.148 74.5746 168.391 74.5189C168.633 74.4632 168.885 74.4701 169.124 74.5391C169.168 74.5498 169.209 74.5694 169.244 74.5966C169.28 74.6238 169.309 74.658 169.331 74.6972C169.353 74.7364 169.367 74.7796 169.372 74.8244C169.376 74.8691 169.372 74.9143 169.358 74.9572C169.345 75.0001 169.323 75.0398 169.294 75.0738C169.265 75.1079 169.229 75.1355 169.189 75.1551C169.148 75.1746 169.105 75.1857 169.06 75.1876C169.015 75.1894 168.971 75.1821 168.929 75.1659H168.925Z" fill="#FFEBE3"/>
<path d="M173.623 90.0859L172.886 91.2488C172.655 91.6139 172.023 91.2872 172.253 90.9208L172.991 89.7579C173.222 89.3928 173.854 89.7207 173.623 90.0859Z" fill="#FFEBE3"/>
<path d="M136.294 143.309C130.646 145.628 124.082 145.969 118.177 144.213C118.133 144.202 118.092 144.183 118.056 144.156C118.02 144.129 117.99 144.095 117.968 144.056C117.945 144.016 117.931 143.973 117.927 143.928C117.922 143.883 117.926 143.838 117.939 143.794C117.953 143.751 117.975 143.711 118.004 143.677C118.034 143.643 118.07 143.615 118.11 143.596C118.15 143.576 118.194 143.565 118.239 143.563C118.284 143.562 118.329 143.569 118.371 143.586C124.083 145.285 130.453 144.994 135.929 142.749C136.354 142.574 136.726 143.134 136.299 143.309H136.294Z" fill="#E79780"/>
<path d="M172.451 83.0468C170.737 83.0538 169.022 83.055 167.307 83.0701C165.921 83.0817 164.375 83.134 163.264 83.9678C162.906 84.2365 162.385 83.7783 162.745 83.5085C163.901 82.6386 165.402 82.4619 166.869 82.4258C168.729 82.3851 170.593 82.4049 172.452 82.3968C172.498 82.392 172.543 82.3969 172.587 82.4111C172.63 82.4253 172.67 82.4485 172.703 82.4791C172.737 82.5097 172.764 82.5472 172.782 82.589C172.801 82.6308 172.811 82.676 172.811 82.7218C172.811 82.7675 172.801 82.8128 172.782 82.8546C172.764 82.8964 172.737 82.9338 172.703 82.9645C172.67 82.9951 172.63 83.0183 172.587 83.0325C172.543 83.0467 172.498 83.0515 172.452 83.0468H172.451Z" fill="#E79780"/>
<path d="M170.594 96.8364C170.381 96.1247 169.387 95.7898 168.69 95.5479C167.853 95.2551 166.986 95.06 166.105 94.9665C164.378 94.7839 162.632 94.9823 160.99 95.5479C160.551 95.7003 160.36 95.0723 160.794 94.9223C162.685 94.2804 164.699 94.0967 166.673 94.3862C167.637 94.5244 168.58 94.7797 169.482 95.1467C170.261 95.463 171.066 95.8805 171.3 96.6585C171.415 97.0632 170.714 97.2399 170.594 96.8318V96.8364Z" fill="#E79780"/>
<path d="M165.625 108.522C165.119 108.092 164.409 107.897 163.754 107.708C161.604 107.104 159.347 106.996 157.15 107.392C156.688 107.473 156.492 106.848 156.955 106.766C158.562 106.481 160.204 106.442 161.824 106.65C162.651 106.757 163.468 106.932 164.267 107.175C164.944 107.382 165.618 107.613 166.143 108.058C166.489 108.349 165.965 108.807 165.625 108.524V108.522Z" fill="#E79780"/>
<path d="M77.4093 120.662C80.7362 125.257 85.0081 129.315 89.9649 132.56C91.3511 133.472 92.8009 134.318 94.2887 135.1C94.6942 135.313 94.3257 135.875 93.9191 135.661C88.5383 132.834 83.7443 129.139 79.8502 124.797C78.7607 123.582 77.7347 122.312 76.7763 120.99C76.521 120.641 77.1552 120.311 77.4093 120.662Z" fill="#E79780"/>
<path d="M66.1106 264.442H153.451C148.233 238.451 144.57 206.803 141.899 186.428C140.398 174.964 139.212 167.066 138.241 165.751C135.545 162.096 112.942 173.479 84.3993 165.751C76.6596 163.657 73.2981 163.227 73.7474 168.997C74.1968 174.768 66.1106 264.442 66.1106 264.442Z" fill="#FF251B"/>
<path d="M142.359 263.762C140.752 257.128 139.144 250.492 137.207 243.928C136.222 240.587 135.152 237.265 133.954 233.979C132.807 230.839 131.243 227.719 130.624 224.443C130 221.141 130.606 217.796 130.42 214.473C130.232 211.119 129.496 207.816 128.778 204.525C128.085 201.333 127.391 198.129 127.195 194.873C126.992 191.535 127.625 188.245 127.707 184.92C127.783 181.827 127.54 178.667 126.874 175.627C126.232 172.703 125.154 169.715 122.922 167.424C122.451 166.942 123.242 166.233 123.717 166.726C127.515 170.625 128.423 176.206 128.736 181.177C128.935 184.343 128.621 187.434 128.374 190.589C128.102 194.025 128.472 197.412 129.132 200.798C129.776 204.093 130.611 207.356 131.124 210.669C131.642 214.021 131.491 217.285 131.455 220.652C131.416 224.265 132.622 227.44 133.939 230.809C135.21 234.072 136.351 237.376 137.391 240.704C139.743 248.23 141.593 255.869 143.443 263.497C143.594 264.121 142.51 264.389 142.359 263.762Z" fill="#FF6157"/>
<path d="M128.399 263.032C130.323 256.423 127.359 249.796 125.152 243.553C122.935 237.283 121.112 230.88 119.693 224.38C116.95 211.806 115.609 198.897 116.221 186.092C116.511 180.021 116.78 173.425 111.856 168.625C111.369 168.152 112.162 167.445 112.649 167.921C116.822 171.991 117.576 177.316 117.475 182.609C117.421 185.48 117.177 188.347 117.173 191.215C117.167 194.554 117.3 197.898 117.519 201.232C118.461 215.006 121.2 228.595 125.667 241.649C128.037 248.599 131.626 255.931 129.479 263.294C129.299 263.915 128.215 263.651 128.396 263.029L128.399 263.032Z" fill="#FF6157"/>
<path d="M103.75 264.442C103.729 264.412 103.71 264.381 103.694 264.348C102.415 261.569 102.497 258.56 102.782 255.626C103.102 252.32 103.475 249.016 103.831 245.711L104.919 235.465C105.265 232.162 105.666 228.828 105.292 225.513C104.929 222.29 103.664 219.233 102.819 216.094C102.012 213.089 101.797 209.954 102.187 206.866C102.566 203.683 103.349 200.554 103.817 197.381C104.292 194.277 104.256 191.116 103.709 188.024C102.554 181.582 99.8348 174.883 102.335 168.425C102.566 167.822 103.654 168.077 103.418 168.689C101.145 174.564 103.37 180.68 104.558 186.537C105.154 189.467 105.465 192.393 105.186 195.369C104.9 198.421 104.19 201.424 103.67 204.447C103.125 207.622 102.829 210.843 103.471 214.028C104.095 217.119 105.347 220.075 106.024 223.157C106.708 226.272 106.628 229.43 106.338 232.576C106.031 235.905 105.645 239.228 105.29 242.553L104.097 253.785C103.731 257.23 103.263 260.794 104.778 264.083C104.808 264.138 104.824 264.2 104.824 264.262C104.824 264.325 104.808 264.387 104.778 264.442H103.75Z" fill="#FF6157"/>
<path d="M90.1613 167.353C85.8224 172.419 87.2121 179.744 87.4824 185.657C87.807 192.751 87.9376 199.883 86.5583 206.905C85.8652 210.422 84.9861 213.936 85.5648 217.522C86.0766 220.694 87.2433 223.787 86.8147 227.028C86.4116 230.069 84.9815 232.88 84.1012 235.817C83.6334 237.406 83.3999 239.056 83.4081 240.713C83.4024 242.169 83.4555 243.63 83.1771 245.069C82.8525 246.77 81.9064 248.078 80.7928 249.451C79.5891 250.933 78.8902 252.379 78.9607 254.233C79.0832 257.433 80.6403 260.485 79.849 263.711C79.6954 264.337 78.6118 264.072 78.7655 263.445C79.4875 260.502 78.1001 257.607 77.8645 254.685C77.7605 253.406 77.8945 252.098 78.4802 250.911C79.1559 249.542 80.3585 248.469 81.181 247.179C82.998 244.329 81.9734 240.805 82.5036 237.702C83.0339 234.6 84.5552 231.752 85.3454 228.717C86.2603 225.196 85.2772 221.972 84.6095 218.5C83.9695 215.175 84.3889 211.962 85.0612 208.671C85.7889 205.104 86.3319 201.553 86.4971 197.927C86.6623 194.301 86.5779 190.655 86.4254 187.022C86.2683 183.309 85.8929 179.565 86.0789 175.849C86.2418 172.658 86.973 169.442 89.1979 166.851C89.6287 166.346 90.606 166.843 90.1671 167.353H90.1613Z" fill="#FF6157"/>
<path d="M132.036 63.6009C130.848 63.6125 130.321 64.7638 129.924 65.5871C129.639 66.1686 128.671 65.6673 128.953 65.0836C129.531 63.887 130.384 62.6206 132.036 62.6043C132.759 62.5973 132.761 63.5939 132.036 63.6009Z" fill="#E9F4F6"/>
<path d="M144.232 101.303C144.366 101.701 144.475 102.185 144.755 102.528C144.933 102.745 145.478 103.038 145.782 103.004L145.24 103.371C145.188 103.675 145.457 103.903 145.21 103.659C145.113 103.564 145.012 103.471 144.912 103.378C144.661 103.145 144.407 102.912 144.155 102.68C143.832 102.379 143.126 101.898 143.128 101.438C143.128 100.796 144.255 100.795 144.251 101.438C144.165 101.226 144.15 101.164 144.204 101.247C144.228 101.279 144.228 101.279 144.204 101.247C144.145 101.219 144.264 101.311 144.286 101.334C144.378 101.429 144.473 101.521 144.569 101.612C144.828 101.861 145.093 102.104 145.358 102.348C145.716 102.68 146.411 103.124 146.325 103.636C146.284 103.868 146.008 103.977 145.783 104.001C145.239 104.06 144.405 103.652 144.05 103.324C143.544 102.859 143.357 102.161 143.153 101.568C142.941 100.952 144.025 100.689 144.232 101.303Z" fill="#E9F4F6"/>
<path d="M122.152 91.9732C120.626 91.7406 119.469 92.7663 118.679 93.7838C118.271 94.3083 117.293 93.8105 117.709 93.2803C118.821 91.8499 120.366 90.6917 122.445 91.0126C123.155 91.1219 122.854 92.0825 122.146 91.9732H122.152Z" fill="#E9F4F6"/>
<path d="M136.763 117.973L120.467 116.014C119.864 115.942 119.281 115.751 118.752 115.452C118.222 115.153 117.756 114.751 117.38 114.271C117.005 113.79 116.727 113.24 116.563 112.651C116.399 112.063 116.352 111.447 116.424 110.84C116.496 110.233 116.686 109.646 116.983 109.113C117.28 108.58 117.678 108.111 118.156 107.733C118.633 107.354 119.18 107.075 119.765 106.91C120.349 106.745 120.961 106.697 121.564 106.77L137.86 108.731C138.463 108.803 139.046 108.994 139.576 109.293C140.105 109.592 140.571 109.993 140.947 110.474C141.322 110.954 141.6 111.505 141.764 112.093C141.928 112.682 141.975 113.297 141.903 113.904C141.831 114.511 141.641 115.098 141.344 115.631C141.047 116.164 140.648 116.633 140.171 117.011C139.694 117.389 139.147 117.669 138.562 117.834C137.978 117.999 137.366 118.046 136.763 117.973Z" fill="white"/>
<path d="M120.545 115.623C119.989 115.556 119.452 115.38 118.964 115.104C118.477 114.828 118.047 114.458 117.702 114.016C117.356 113.573 117.1 113.066 116.949 112.524C116.798 111.981 116.754 111.414 116.82 110.855C116.887 110.296 117.062 109.755 117.336 109.264C117.61 108.773 117.977 108.341 118.417 107.993C118.857 107.644 119.36 107.387 119.899 107.235C120.438 107.083 121.001 107.039 121.557 107.106C122.112 107.173 122.649 107.349 123.137 107.625C123.625 107.9 124.055 108.27 124.4 108.713C124.746 109.156 125.002 109.663 125.154 110.205C125.305 110.747 125.349 111.314 125.282 111.874C125.148 113.003 124.573 114.033 123.685 114.736C122.796 115.439 121.667 115.758 120.545 115.623Z" fill="#FF251B"/>
<path opacity="0.58" d="M119.53 62.1066C118.621 62.3299 117.97 63.0195 117.87 63.8509L115.676 82.384C115.225 86.1762 116.592 89.9428 119.333 92.4651L129.321 100.743C129.656 101.014 130.061 101.185 130.488 101.236C130.916 101.288 131.349 101.217 131.738 101.033L143.378 95.3572C146.632 93.5559 148.841 90.2196 149.291 86.4274L151.486 67.9373C151.588 67.078 151.083 66.2325 150.215 65.8104C137.614 59.7029 132.362 58.9493 119.533 62.0973L119.53 62.1066Z" fill="#FF251B"/>
<path d="M150.213 65.8197C144.079 62.8462 139.686 61.146 135.311 60.5425L130.481 101.244C130.909 101.297 131.343 101.227 131.732 101.041L143.378 95.3572C146.632 93.5559 148.841 90.2196 149.291 86.4274L151.486 67.9373C151.588 67.078 151.083 66.2325 150.215 65.8104L150.213 65.8197Z" fill="#FF6157"/>
<g opacity="0.81">
<path d="M123.941 82.6049C123.856 82.5027 123.798 82.3802 123.773 82.2491L121.341 72.9343C121.324 72.858 121.319 72.7795 121.326 72.7017C121.325 72.6675 121.333 72.6338 121.348 72.6031C121.362 72.5724 121.384 72.5456 121.411 72.5247C121.438 72.5039 121.469 72.4896 121.502 72.483C121.536 72.4763 121.57 72.4776 121.603 72.4866L123.257 72.6808C123.364 72.686 123.465 72.7293 123.542 72.8029C123.609 72.8774 123.654 72.9686 123.673 73.0668L125.146 79.507L128.084 73.5971C128.124 73.499 128.197 73.418 128.29 73.3679C128.382 73.3178 128.49 73.3018 128.593 73.3227L130.247 73.5215C130.281 73.5205 130.315 73.5274 130.345 73.5417C130.376 73.556 130.403 73.5772 130.424 73.6038C130.446 73.6304 130.461 73.6616 130.468 73.6949C130.475 73.7283 130.475 73.7629 130.466 73.796C130.455 73.8743 130.432 73.9504 130.397 74.0216L125.868 82.4991C125.812 82.6214 125.724 82.7265 125.615 82.8038C125.507 82.8551 125.386 82.8709 125.268 82.8491L124.262 82.7328C124.144 82.7272 124.031 82.6822 123.941 82.6049Z" fill="white"/>
<path d="M130.642 83.3445C130.551 83.2007 130.519 83.0268 130.553 82.8596L131.565 74.3251C131.573 74.1524 131.644 73.9889 131.766 73.867C131.837 73.8164 131.918 73.7812 132.003 73.7638C132.088 73.7464 132.176 73.7471 132.26 73.7658L135.708 74.1809C138.069 74.4647 139.12 75.7101 138.859 77.9173C138.598 80.1245 137.286 81.0812 134.924 80.7873L133.132 80.571L132.828 83.1294C132.821 83.2989 132.752 83.4599 132.634 83.5806C132.53 83.6701 132.363 83.6969 132.133 83.6736L131.1 83.5492C131.014 83.5479 130.929 83.5291 130.85 83.494C130.771 83.4588 130.701 83.408 130.642 83.3445ZM134.979 79.0267C135.935 79.1415 136.474 78.6809 136.596 77.6452C136.718 76.6094 136.301 76.0338 135.347 75.9183L133.719 75.7229L133.351 78.8314L134.979 79.0267Z" fill="white"/>
<path d="M139.098 84.362C139.013 84.2162 138.984 84.0439 139.018 83.8782L140.033 75.3286C140.039 75.1592 140.107 74.9982 140.224 74.8763C140.326 74.7867 140.485 74.76 140.701 74.7809L141.502 74.8774C141.616 74.8839 141.727 74.9199 141.824 74.9821C141.912 75.0599 141.984 75.1554 142.033 75.2624L144.979 81.3827L145.615 76.0147C145.623 75.8433 145.691 75.6802 145.808 75.5554C145.873 75.5055 145.948 75.4703 146.028 75.4522C146.108 75.4341 146.19 75.4336 146.27 75.4507L147.24 75.567C147.456 75.5938 147.6 75.6624 147.674 75.7729C147.755 75.9252 147.781 76.1012 147.747 76.2706L146.734 84.8062C146.727 84.9742 146.661 85.1344 146.549 85.2586C146.451 85.3481 146.294 85.3807 146.079 85.3551L145.27 85.2563C145.16 85.25 145.053 85.2147 144.96 85.1539C144.873 85.0759 144.801 84.9805 144.751 84.8737L141.792 78.765L141.154 84.1341C141.148 84.3022 141.083 84.4626 140.969 84.5864C140.871 84.6771 140.715 84.7027 140.499 84.683L139.53 84.5667C139.448 84.5655 139.367 84.5467 139.292 84.5114C139.217 84.4761 139.151 84.4252 139.098 84.362Z" fill="white"/>
</g>
</g>
</g>
<defs>
<clipPath id="clip0_64_2487">
<rect width="267" height="221" fill="white"/>
</clipPath>
</defs>
</svg>
