<svg width="230" height="230" viewBox="0 0 230 230" fill="none" xmlns="http://www.w3.org/2000/svg">
<path d="M153.073 0H46.1997C43.2178 0 40.7827 2.6091 40.7827 5.7897V218.418C40.7827 221.599 43.2178 224.208 46.1997 224.208H153.073C156.055 224.208 158.49 221.599 158.49 218.418V5.7897C158.49 2.6091 156.055 0 153.073 0Z" fill="#F9CECC"/>
<g opacity="0.86">
<path d="M156.527 12.6975H42.7706V215.312H156.527V12.6975Z" fill="#F5F5F1"/>
</g>
<path d="M116.844 4.1001H82.5033V5.41707H116.844V4.1001Z" fill="#FFE6E5"/>
<path d="M15.9342 201.994C15.9342 201.994 8.8772 213.548 10.8402 218.791C12.8033 224.034 39.093 223.711 42.9196 218.94C46.7463 214.169 38.8693 202.913 35.9621 200.13C33.0796 197.372 15.9342 201.994 15.9342 201.994Z" fill="#1E2223"/>
<path d="M20.2578 174.933C20.2578 174.933 15.959 177.095 15.3875 178.263C14.816 179.431 15.9342 190.389 14.8905 196.701C13.9214 202.615 8.72811 206.392 11.859 208.777C17.102 212.753 36.3348 213.772 41.8263 211.809C47.3427 209.87 39.8384 197.123 40.6833 190.588C41.5281 184.053 40.4348 177.94 40.1863 177.518C38.8942 175.48 32.6324 173.616 32.6324 173.616C32.6324 173.616 27.5384 180.673 20.2578 174.933Z" fill="#FF251B"/>
<path d="M38.4966 176.375C38.4718 176.027 45.2057 178.412 47.4421 186.737C47.7154 188.873 42.2736 194.738 40.2857 195.135C40.0124 195.26 39.2669 189.917 38.4966 176.375Z" fill="#FF6157"/>
<path d="M18.8912 176.573C18.7918 176.126 17.6736 176.449 16.3069 177.195C13.9215 178.512 9.05117 184.575 8.80269 188.675C8.75299 190.588 13.3251 194.638 15.636 195.483C16.0584 195.632 16.456 192.601 16.5057 192.153C18.3694 180.947 19.2142 178.139 18.8912 176.573Z" fill="#FF6157"/>
<path d="M20.8045 218.319C20.8045 218.319 38.0245 208.678 44.4603 208.33C50.896 208.007 56.5118 208.628 56.4869 212.306C56.4621 215.958 55.0209 217.549 52.7348 219.363C47.293 223.661 28.6318 226.817 22.6184 223.686C16.63 220.555 20.8045 218.319 20.8045 218.319Z" fill="#3A3B3A"/>
<path d="M40.9814 220.381C39.7639 219.412 34.9432 218.319 32.2099 217.847C32.1105 218.319 30.9426 221.847 30.4705 223.264C34.4711 224.407 36.1608 224.804 37.8754 225.575C39.0184 226.072 42.0996 229.028 44.3857 229.277C46.6717 229.501 43.019 222.021 40.9814 220.381Z" fill="#FFBA93"/>
<path d="M42.0748 220.555C41.2051 219.71 40.1366 218.965 38.9688 219.288C38.9688 219.288 38.8694 219.338 38.8445 219.338C42.8451 225.078 39.913 226.916 39.913 226.916C40.6833 229.078 45.1312 231.613 46.5972 228.656C47.6906 226.544 44.1621 222.618 42.0748 220.555Z" fill="#1E2223"/>
<path d="M17.9717 220.183C19.1396 219.164 23.8857 217.822 26.5942 217.201C26.7184 217.673 28.0602 221.127 28.6069 222.518C24.6808 223.86 23.016 224.357 21.3511 225.202C20.233 225.773 17.3257 228.879 15.0396 229.227C12.7287 229.6 16.0087 221.922 17.9717 220.183Z" fill="#FFBA93"/>
<path d="M19.91 218.99C18.7172 218.716 17.6984 219.512 16.8784 220.406C14.8906 222.593 11.5857 226.668 12.7536 228.73C14.3687 231.613 18.6924 228.83 19.3633 226.643C19.3633 226.643 16.3566 224.953 20.0591 219.015C20.0094 219.039 19.91 218.99 19.91 218.99Z" fill="#1E2223"/>
<path d="M35.4651 218.095C35.4651 218.095 18.2202 210.392 11.8093 209.274C4.32993 207.957 -0.192494 210.193 0.00629407 213.846C0.205082 217.499 2.09357 218.493 4.13115 220.704C7.60993 224.456 32.9554 226.221 33.6263 224.879C35.1669 221.773 35.4651 218.095 35.4651 218.095Z" fill="#1E2223"/>
<path d="M32.1602 196.378H23.9354C23.4632 196.378 23.0905 196.825 23.1154 197.372L23.836 210.765C23.8608 211.262 24.2087 211.66 24.656 211.66H31.3402C31.7626 211.66 32.1354 211.287 32.1602 210.79L33.0051 197.396C33.0051 196.825 32.6323 196.378 32.1602 196.378Z" fill="#6C6C6C"/>
<path d="M9.20023 189.843C9.79659 190.613 12.9027 194.042 14.7166 195.061C14.642 196.104 14.6917 197.073 15.0893 198.067C15.9839 200.204 19.413 204.801 21.7239 205.273C25.3766 205.199 27.2899 206.218 26.7184 207.609C25.4014 210.765 21.8481 210.318 20.233 209.696C16.6796 208.951 7.36144 201.472 8.05719 194.986C8.23113 193.495 8.7778 191.433 9.20023 189.843Z" fill="#FFBA93"/>
<path d="M46.6469 189.047C46.1996 189.743 42.3233 193.818 41.0311 194.862C41.1554 195.906 41.553 196.676 41.2051 197.695C40.4348 199.881 35.4402 205.05 33.1542 205.646C29.5014 205.77 28.0105 206.218 28.6566 207.559C30.1475 210.641 33.7008 210.094 35.2663 209.398C38.7948 208.454 49.1069 200.676 48.0633 194.241C47.8396 192.75 47.1439 190.588 46.6469 189.047Z" fill="#FFBA93"/>
<g opacity="0.69">
<path d="M28.756 201.596V201.124C28.756 200.801 28.4578 200.527 28.0851 200.527H27.9857C27.613 200.527 27.3148 200.776 27.2899 201.099V201.571C26.9669 201.596 26.7184 201.819 26.6936 202.118L26.6687 203.459C26.6687 203.758 26.942 204.031 27.3148 204.031L28.6069 204.056C28.9796 204.056 29.2778 203.807 29.2778 203.509L29.3027 202.167C29.3275 201.869 29.079 201.621 28.756 201.596ZM28.2093 202.615L28.3833 203.037H27.9857H27.5881L27.7869 202.615C27.6875 202.565 27.613 202.441 27.613 202.341C27.613 202.167 27.7869 202.018 27.9857 202.018C28.1845 202.018 28.3584 202.167 28.3584 202.341C28.4081 202.466 28.3087 202.565 28.2093 202.615ZM28.5075 201.571L27.5633 201.546V201.099C27.5633 200.9 27.762 200.726 28.0105 200.751H28.1099C28.3584 200.751 28.5324 200.925 28.5324 201.124L28.5075 201.571Z" fill="white"/>
<path d="M29.7748 200.006C29.6754 199.956 29.6008 199.931 29.5263 199.881C29.402 199.807 29.2778 199.732 29.1784 199.682C29.0044 199.558 28.8305 199.434 28.7063 199.335C28.6566 199.285 28.6069 199.235 28.5572 199.21C28.5323 199.186 28.5075 199.161 28.4826 199.136C28.4081 199.086 28.3584 199.012 28.3087 198.962C28.1596 198.813 28.0851 198.713 28.0851 198.713C28.0851 198.713 28.0105 198.813 27.8614 198.962C27.8117 199.012 27.762 199.061 27.6875 199.136C27.6626 199.161 27.6378 199.186 27.6129 199.186C27.5632 199.235 27.5135 199.26 27.4638 199.31C27.3148 199.409 27.1657 199.533 26.9669 199.633C26.8675 199.707 26.7432 199.757 26.619 199.832C26.5445 199.881 26.4451 199.906 26.3457 199.956C26.0226 200.08 25.6499 200.204 25.2523 200.254C24.979 201.447 24.7057 204.776 27.936 205.919C31.1911 204.926 31.0917 201.596 30.8681 200.403C30.4705 200.279 30.0978 200.155 29.7748 200.006ZM30.4457 201.72C30.4457 201.745 30.4457 201.77 30.4457 201.795C30.4457 201.993 30.4208 202.217 30.3711 202.441C30.3711 202.49 30.3463 202.565 30.3463 202.615C30.3463 202.639 30.3463 202.664 30.3214 202.689C30.2966 202.739 30.2966 202.813 30.2717 202.863C30.0978 203.459 29.7996 204.081 29.2529 204.553C29.1784 204.627 29.079 204.677 29.0045 204.752C28.9548 204.801 28.8802 204.826 28.8305 204.876C28.582 205.025 28.2838 205.174 27.936 205.273C25.2772 204.329 25.5008 201.571 25.7244 200.602C26.7432 200.453 27.439 199.931 27.7869 199.608C27.8117 199.583 27.8614 199.558 27.8863 199.509C27.9111 199.459 27.936 199.459 27.9608 199.434C28.0354 199.359 28.0851 199.31 28.0851 199.31C28.0851 199.31 28.259 199.533 28.582 199.832C28.582 199.832 28.582 199.832 28.6069 199.856C28.6566 199.906 28.7311 199.956 28.8057 200.006L28.8305 200.03C28.9299 200.105 29.0541 200.179 29.1784 200.254C29.2529 200.304 29.3275 200.353 29.4269 200.378C29.4517 200.403 29.5014 200.403 29.5263 200.428C29.576 200.453 29.6257 200.478 29.6754 200.478C29.7002 200.478 29.7251 200.502 29.7748 200.502C29.8245 200.527 29.8741 200.552 29.9487 200.552C29.9735 200.552 29.9984 200.577 30.0232 200.577C30.1475 200.602 30.2717 200.652 30.396 200.676C30.396 200.701 30.396 200.726 30.4208 200.776C30.4208 200.776 30.4208 200.776 30.4208 200.801C30.4457 200.875 30.4457 200.975 30.4457 201.074C30.4457 201.099 30.4457 201.124 30.4457 201.149C30.4457 201.198 30.4457 201.223 30.4457 201.273C30.4457 201.322 30.4457 201.372 30.4457 201.422C30.4457 201.472 30.4457 201.521 30.4457 201.571C30.4457 201.621 30.4457 201.67 30.4457 201.72Z" fill="white"/>
</g>
<path d="M41.056 169.343L39.7639 174.287C39.7639 174.287 44.5596 173.095 43.7645 169.914C43.0439 167.106 41.4039 169.343 41.056 169.343Z" fill="#FFBA93"/>
<path d="M15.6609 169.343L16.953 174.287C16.953 174.287 12.1572 173.095 12.9524 169.914C13.673 167.106 15.313 169.343 15.6609 169.343Z" fill="#FFBA93"/>
<path d="M35.1172 155.8C32.1602 154.26 26.4948 153.191 20.7299 156.496C18.3196 157.887 13.1511 162.46 15.7851 172.449C16.5305 175.232 18.6178 178.139 22.022 179.779C25.4014 181.369 29.899 181.717 34.2723 180.102C37.1796 179.034 39.6893 176.946 40.7329 174.014C44.0875 164.597 38.7451 157.689 35.1172 155.8Z" fill="#FFBA93"/>
<path d="M22.1214 167.578C19.3881 167.578 17.1766 169.541 17.1766 171.977C17.1766 174.412 19.3881 176.375 22.1214 176.375C24.8547 176.375 27.0663 174.412 27.0663 171.977C27.0663 169.566 24.8547 167.578 22.1214 167.578ZM22.1214 175.952C19.6366 175.952 17.599 174.163 17.599 171.977C17.599 169.79 19.6366 168.001 22.1214 168.001C24.6063 168.001 26.6438 169.79 26.6438 171.977C26.6438 174.163 24.6311 175.952 22.1214 175.952Z" fill="#211A49"/>
<path d="M34.3717 167.578C31.6383 167.578 29.4268 169.541 29.4268 171.977C29.4268 174.412 31.6383 176.375 34.3717 176.375C37.105 176.375 39.3165 174.412 39.3165 171.977C39.3165 169.566 37.105 167.578 34.3717 167.578ZM34.3717 175.952C31.8868 175.952 29.8493 174.163 29.8493 171.977C29.8493 169.79 31.8868 168.001 34.3717 168.001C36.8565 168.001 38.8941 169.79 38.8941 171.977C38.8941 174.163 36.8814 175.952 34.3717 175.952Z" fill="#211A49"/>
<path d="M26.8178 170.858C26.7184 170.908 26.6935 171.057 26.7432 171.157C26.7929 171.256 26.942 171.281 27.0414 171.231C27.0663 171.231 28.3832 170.411 29.4269 171.38C29.4765 171.43 29.5262 171.43 29.5759 171.43C29.6256 171.43 29.7002 171.405 29.725 171.355C29.7996 171.256 29.7996 171.132 29.7002 171.057C28.4329 169.865 26.8426 170.834 26.8178 170.858Z" fill="#211A49"/>
<path d="M15.6856 169.517C15.5614 169.541 15.4869 169.641 15.5117 169.765C15.5366 169.889 15.6359 169.964 15.7602 169.939C16.9032 169.74 17.599 170.361 17.6487 170.386C17.6984 170.411 17.7481 170.436 17.7978 170.436C17.8475 170.436 17.922 170.411 17.9469 170.361C18.0214 170.262 18.0214 170.138 17.922 170.063C17.8723 170.038 17.0523 169.293 15.6856 169.517Z" fill="#211A49"/>
<path d="M40.882 169.517C40.062 169.343 38.9936 170.063 38.9439 170.088C38.8445 170.163 38.8196 170.287 38.8942 170.386C38.9439 170.461 38.9936 170.486 39.0681 170.486C39.1178 170.486 39.1426 170.486 39.1923 170.461C39.4657 170.287 40.2857 169.815 40.8075 169.939C40.9566 169.964 41.0808 170.063 41.1554 170.187C41.2299 170.287 41.3542 170.312 41.4536 170.262C41.553 170.187 41.5778 170.063 41.5281 169.964C41.3542 169.715 41.1554 169.566 40.882 169.517Z" fill="#211A49"/>
<path d="M38.0245 153.315C35.5893 150.855 32.5826 150.507 29.3523 150.234C27.3396 150.06 24.4075 150.11 22.4445 150.681C21.4257 150.979 20.382 151.949 20.382 151.949C19.6366 152.296 18.4935 149.886 17.599 151.675C16.9032 153.042 17.5493 153.862 17.5742 154.384C17.2511 154.185 16.456 153.216 16.2075 153.862C15.9093 154.732 16.5554 155.626 16.9281 155.601C15.5117 155.427 15.1887 157.241 14.816 158.856C14.4681 160.397 14.0705 162.733 13.9463 164.298C13.8717 165.168 13.9711 166.162 13.9711 167.032C13.9711 167.901 14.1699 168.771 14.1699 169.616C14.2445 170.013 14.4681 171.703 14.816 171.803C15.3626 171.927 15.5366 169.864 15.6111 169.243C15.8099 167.429 16.282 165.64 17.2014 164.149C18.096 162.658 19.4626 161.466 21.0032 161.093C22.6184 160.72 24.2584 161.242 25.8984 161.515C28.582 161.987 31.3154 161.813 33.9493 160.993C35.9869 160.372 37.1796 160.72 38.3972 162.708C38.4717 162.832 38.5463 162.981 38.6208 163.106C39.7638 165.143 40.3354 166.907 40.5839 169.293C40.6584 170.013 40.6584 171.976 41.5529 171.728C42.4226 171.479 42.2487 169.591 42.2984 168.87C42.3481 167.752 42.2735 166.659 42.0251 165.59C42.2984 165.665 42.4226 165.292 42.522 165.019C42.6214 164.721 42.5966 164.398 42.5717 164.075C42.2487 160.372 40.4596 155.8 38.0245 153.315Z" fill="#2C2C2C"/>
<rect x="54.6978" y="19.8787" width="90.7964" height="10.2376" rx="5.11879" fill="white"/>
<rect x="53.7039" y="108.588" width="90.697" height="4.72121" rx="2.36061" fill="white"/>
<rect x="53.7039" y="199.782" width="90.697" height="4.72121" rx="2.36061" fill="white"/>
<rect x="53.7039" y="117.782" width="79.0182" height="4.72121" rx="2.36061" fill="white"/>
<rect x="50.4736" y="37.7695" width="98.4" height="64.3576" rx="12" fill="white"/>
<rect x="50.4736" y="129.709" width="98.4" height="64.3576" rx="12" fill="white"/>
<path d="M176.614 81.7517C176.614 81.7517 168.414 100.537 163.47 103.469C159.916 105.581 144.237 94.325 144.237 94.325L141.081 96.6608C141.081 96.6608 152.71 109.855 164.016 111.346C174.154 112.837 180.963 92.0638 180.963 92.0638L176.614 81.7517Z" fill="#FFBA93"/>
<path d="M177.757 77.8008C177.757 77.8008 169.682 98.1269 167.893 98.4499C167.669 100.338 171.769 105.432 174.552 107.097C177.335 108.762 178.876 101.556 178.876 101.556C178.876 101.556 179.074 77.776 177.757 77.8008Z" fill="#981C1C"/>
<path d="M189.66 141.14C191.772 154.98 218.161 219.611 216.894 220.729C215.726 221.748 220.82 224.63 222.41 221.698C214.956 194.042 207.576 146.06 207.576 146.06C207.576 146.06 188.442 133.064 189.66 141.14Z" fill="#FFBA93"/>
<path d="M221.665 219.064L216.919 220.406C216.919 220.406 212.197 224.755 212.893 226.146C213.415 227.19 218.931 224.879 221.69 223.661C222.559 223.264 222.957 222.27 222.609 221.375L221.665 219.064Z" fill="#1E2223"/>
<path d="M180.714 138.406C179.696 152.371 191.002 221.251 189.511 222.071C188.144 222.817 192.468 226.743 194.679 224.233C193.561 195.607 197.09 147.203 197.09 147.203C197.09 147.203 181.336 130.256 180.714 138.406Z" fill="#FFBA93"/>
<path d="M194.555 221.5L189.61 221.748C189.61 221.748 184.044 224.953 184.392 226.469C184.665 227.587 190.554 226.593 193.536 225.997C194.48 225.823 195.102 224.929 194.928 223.984L194.555 221.5Z" fill="#1E2223"/>
<path d="M178.503 121.261C178.503 121.261 178.851 178.04 184.889 201.273C186.877 202.018 191.797 202.416 198.133 201.845C197.611 199.086 195.698 121.857 195.698 121.857C195.698 121.857 181.957 115.819 178.503 121.261Z" fill="#1E2223"/>
<path d="M188.467 121.832C188.467 121.832 198.531 179.953 206.507 201.82C208.172 202.093 213.514 201.994 219.702 200.528C217.739 193.247 208.768 118.826 208.768 118.826C208.768 118.826 191.126 115.943 188.467 121.832Z" fill="#3A3B3A"/>
<path d="M224.199 76.6826C225.715 75.8377 226.361 73.825 225.939 72.1353C225.541 70.4456 224.249 69.0541 222.783 68.1347C221.317 67.2153 219.627 66.6935 217.962 66.1965C219.901 65.3268 221.193 62.6929 219.602 60.6801C215.776 55.8098 209.414 57.3505 208.097 58.3692C210.806 55.6856 209.141 51.4117 207.302 49.548C204.867 47.0632 200.544 43.6092 192.468 45.622C185.908 47.262 183.92 52.5795 182.603 56.282C180.59 61.9971 182.951 66.942 185.063 67.7371C184.094 69.1286 184.367 71.1662 185.411 72.4832C186.454 73.825 188.144 74.5456 189.834 74.7692C191.524 74.9929 193.238 74.8189 194.928 74.6201C194.605 76.2353 195.549 77.9498 196.941 78.8444C198.332 79.7389 200.096 79.888 201.736 79.6147C203.376 79.3414 204.917 78.6953 206.433 78.0492C206.184 80.708 208.545 83.0438 211.129 83.7147C213.713 84.3856 216.447 83.7892 219.056 83.1929C218.708 86.0256 221.466 88.7092 224.299 88.5353C227.131 88.3365 229.467 85.5286 229.343 82.6959C229.293 79.8383 226.982 77.3038 224.199 76.6826Z" fill="#2C2C2C"/>
<path d="M198.382 68.9794C197.065 63.3885 197.76 56.2819 197.76 56.2819C197.76 56.2819 189.834 52.2564 190.654 55.3873C191.25 57.7231 190.38 64.7055 189.883 68.1097C189.71 69.2528 189.188 70.3213 188.368 71.1164C186.802 72.6073 181.336 74.4958 186.43 76.6328C189.511 77.9249 206.308 76.3097 203.327 73.1043C202.457 72.1352 198.953 71.34 198.382 68.9794Z" fill="#FFBA93"/>
<path d="M196.841 51.1631C192.368 48.5291 187.548 51.1879 185.858 56.1079C185.063 58.4685 185.908 65.9728 189.014 67.5134C194.431 70.2219 200.27 63.7613 199.972 56.5552C199.897 53.971 198.605 52.1819 196.841 51.1631Z" fill="#FFBA93"/>
<path d="M200.419 71.6135C191.822 79.1675 185.933 72.1353 185.933 72.1353C185.933 72.1353 180.963 73.7753 178.478 77.8008C176.217 81.4535 178.553 87.4669 178.478 89.902C178.279 94.9959 176.813 127.448 179.373 127.026C187.1 131.151 208.917 127.398 209.563 127.001C210.582 122.578 209.713 79.2172 207.899 76.1608C206.11 73.1044 200.419 71.6135 200.419 71.6135Z" fill="#F5F5F1"/>
<path d="M200.121 70.5698C195.45 78.3722 200.196 133.337 200.196 133.337C200.196 133.337 209.936 132.12 212.396 131.424C210.21 125.386 209.588 77.8504 208.917 75.788C208.247 73.7504 200.121 70.5698 200.121 70.5698Z" fill="#FF251B"/>
<path d="M191.648 48.0074C191.648 48.0074 181.187 49.4237 185.237 62.4444C184.243 56.9031 189.784 53.8219 189.784 53.8219C189.784 53.8219 191.797 59.5868 196.866 61.1522C197.76 65.3268 202.705 71.1165 202.755 63.2892C202.805 45.6716 191.648 48.0074 191.648 48.0074Z" fill="#2C2C2C"/>
<path d="M177.757 77.8008C176.49 79.242 175.571 131.523 175.571 131.523L185.287 132.964L187.125 71.7129C187.15 71.7129 180.938 72.6074 177.757 77.8008Z" fill="#FF251B"/>
<path d="M219.354 128.417L212.545 129.063L214.16 123.323L207.079 116.366L201.96 116.167L201.289 110.675L199.077 108.489L192.816 114.825L171.371 93.7038C175.546 85.8765 174.328 75.9371 167.669 69.4019C159.593 61.4504 146.597 61.5498 138.621 69.6256C130.67 77.7013 130.769 90.6971 138.845 98.6735C145.479 105.209 155.443 106.302 163.196 102.003L211.477 149.563C212.57 150.657 214.359 150.632 215.453 149.538L219.677 145.264C220.77 144.171 220.745 142.382 219.652 141.289L215.875 137.561L222.187 131.2L219.354 128.417ZM154.698 85.4044C152.139 87.9886 147.964 88.0383 145.38 85.4789C142.796 82.9195 142.746 78.745 145.305 76.1607C147.865 73.5765 152.039 73.5268 154.623 76.0862C157.233 78.6456 157.257 82.7953 154.698 85.4044Z" fill="#9D9D9D"/>
<path d="M204.022 88.908C204.246 90.0013 210.408 103.171 204.643 109.681C199.127 115.893 188.219 119.993 188.219 119.993C188.219 119.993 178.95 117.707 181.41 122.503C183.174 125.957 187.945 124.267 189.958 124.168C191.971 124.069 203.873 120.789 212.371 112.117C220.124 104.215 209.961 80.4347 209.961 80.4347C204.867 80.1116 203.799 87.8147 204.022 88.908Z" fill="#FFBA93"/>
<path d="M202.929 84.6093C202.233 92.6105 206.11 104.861 206.11 104.861C206.11 104.861 212.968 104.438 216.62 99.6675C212.545 79.4657 208.719 75.316 208.719 75.316C206.408 73.6014 203.55 77.6518 202.929 84.6093Z" fill="#FF6157"/>
<path d="M135.093 96.0893C134.819 95.3687 135.764 91.9147 136.956 91.9396C138.646 91.9644 141.454 97.4063 141.33 99.3444C141.28 100.164 140.36 101.208 139.367 100.935C138.025 100.537 136.037 98.4996 135.093 96.0893Z" fill="#FFBA93"/>
<path d="M112.794 86.2243L112.744 76.5831C112.695 69.8988 106.756 64.4818 99.5001 64.5067H97.7855C90.5298 64.5315 84.6655 69.9734 84.6904 76.6328L84.7401 86.274C78.4285 86.9946 73.5334 91.9643 73.5831 97.9528L73.757 125.684C73.8067 132.144 79.5716 137.412 86.6037 137.387L111.601 137.338C118.609 137.313 124.324 132.02 124.299 125.584L124.125 97.8534C124.075 91.8649 119.106 86.92 112.794 86.2243ZM98.9782 116.937L91.3746 116.962L95.1267 108.041L95.2013 107.867C93.0146 106.699 91.5485 104.538 91.5237 102.053C91.4988 98.3255 94.7788 95.2691 98.8292 95.2691C102.879 95.2691 106.209 98.2758 106.234 102.028C106.259 104.513 104.793 106.675 102.631 107.867L102.706 108.041L106.557 116.937H98.9782ZM89.5358 86.1994L89.4861 76.6576C89.4613 72.4085 93.1885 68.9546 97.8104 68.9297H99.5249C104.147 68.9297 107.924 72.3588 107.949 76.6079L107.998 86.1497L89.5358 86.1994Z" fill="#9D9D9D"/>
</svg>
