<svg width="194" height="230" viewBox="0 0 194 230" fill="none" xmlns="http://www.w3.org/2000/svg">
<path d="M144.464 20.603C144.437 16.5094 141.447 13.0351 137.408 12.3618C133.125 11.6616 127.847 10.2881 122.433 7.62178C118.824 5.84426 115.943 3.85129 113.68 1.96604C112.711 1.15808 111.634 0.61944 110.475 0.296255V0H108.159C106.274 0.0269321 104.389 0.673303 102.827 1.96604C100.564 3.85129 97.6827 5.84426 94.0738 7.62178C88.6874 10.2881 83.3818 11.6616 79.0996 12.3618C75.0598 13.0351 72.0703 16.5094 72.0434 20.603C71.9626 30.8103 72.7436 39.3747 73.6054 45.8653C75.8408 62.7518 77.1335 71.5855 84.1359 79.8536C90.2764 87.0984 98.2483 90.8689 104.335 92.8888C105.412 93.2389 106.543 93.4543 107.675 93.5082C107.998 93.5082 108.294 93.5351 108.617 93.5082H110.879V93.2119C111.283 93.1311 111.687 93.0234 112.091 92.8888C118.205 90.8689 126.15 87.0984 132.29 79.8536C139.293 71.5855 140.586 62.7248 142.821 45.8653C143.763 39.3747 144.545 30.8103 144.464 20.603Z" fill="#F5F5F1"/>
<path d="M110.556 87.5292C109.398 87.5292 108.24 87.3407 107.109 86.9636C99.7565 84.5397 93.8314 80.7154 89.4953 75.5983C83.2471 68.2458 82.1967 60.3547 80.3115 46.0268C79.3689 38.836 78.911 31.4566 78.9649 24.1311C78.9918 20.4414 81.6581 17.3442 85.3209 16.7247C89.9263 15.9706 94.2623 14.5971 98.1944 12.6311C100.941 11.2575 103.473 9.64159 105.708 7.75634C108.509 5.41325 112.603 5.41325 115.431 7.75634C117.666 9.61466 120.198 11.2575 122.945 12.6311C126.877 14.5702 131.213 15.9437 135.819 16.7247C139.454 17.3172 142.148 20.4414 142.174 24.1311C142.228 31.4835 141.771 38.8629 140.828 46.0268C138.943 60.3547 137.892 68.2189 131.644 75.5983C127.308 80.7154 121.383 84.5397 114.03 86.9636C112.872 87.3407 111.714 87.5292 110.556 87.5292ZM110.556 6.5444C108.967 6.5444 107.351 7.08304 106.032 8.18726C103.769 10.0725 101.211 11.7423 98.4099 13.1158C94.4239 15.0819 90.0609 16.4823 85.3747 17.2634C81.9813 17.8289 79.5035 20.7107 79.4766 24.1311C79.4227 31.4566 79.8806 38.809 80.8232 45.973C82.7085 60.1931 83.7588 68.0303 89.8993 75.2751C94.1546 80.3114 99.9989 84.0819 107.271 86.4788C109.398 87.1791 111.66 87.1791 113.815 86.4788C121.087 84.0819 126.931 80.3114 131.186 75.2751C137.327 68.0303 138.377 60.1931 140.262 45.973C141.205 38.809 141.663 31.4566 141.609 24.1311C141.582 20.7107 139.104 17.8289 135.711 17.2634C131.052 16.4823 126.662 15.1088 122.676 13.1158C119.875 11.7423 117.316 10.0725 115.054 8.18726C113.761 7.10997 112.172 6.5444 110.556 6.5444Z" fill="#F9CECC"/>
<path d="M128.669 50.9183C130.956 40.9282 124.712 30.9754 114.722 28.688C104.732 26.4005 94.7789 32.6447 92.4915 42.6348C90.2041 52.6248 96.4483 62.5777 106.438 64.8651C116.428 67.1526 126.381 60.9083 128.669 50.9183Z" fill="#FF251B"/>
<path d="M121.06 41.5024C120.225 40.6675 118.878 40.6675 118.07 41.5024L110.341 49.2319L108.671 47.5621L106.463 45.3537C105.628 44.5188 104.281 44.5188 103.473 45.3537C102.638 46.1886 102.638 47.5352 103.473 48.3431L105.493 50.3631L108.644 53.5141C108.698 53.5949 108.752 53.6757 108.833 53.7296C109.263 54.1605 109.802 54.349 110.341 54.349C110.879 54.349 111.445 54.1605 111.849 53.7296C111.93 53.6488 111.984 53.568 112.037 53.5141L121.06 44.4919C121.895 43.6839 121.895 42.3373 121.06 41.5024Z" fill="white"/>
<path d="M6.67916 230H86.856C90.5457 230 93.5351 227.01 93.5351 223.321V46.6193C93.5351 42.9296 90.5457 39.9402 86.856 39.9402H6.67916C2.98947 39.9402 0 42.9296 0 46.6193V223.321C0.0269321 227.01 3.0164 230 6.67916 230Z" fill="#FFECEC"/>
<path d="M11.4731 230H91.6499C95.3396 230 98.329 227.01 98.329 223.321V46.6193C98.329 42.9296 95.3396 39.9402 91.6499 39.9402H11.4731C7.78338 39.9402 4.79391 42.9296 4.79391 46.6193V223.321C4.79391 227.01 7.78338 230 11.4731 230Z" fill="#F9CECC"/>
<path d="M12.8466 225.098H90.2494C93.3735 225.098 95.9051 222.567 95.9051 219.443V47.7236C95.9051 44.5995 93.3735 42.0679 90.2494 42.0679H12.8466C9.72247 42.0679 7.19086 44.5995 7.19086 47.7236V219.443C7.19086 222.567 9.72247 225.098 12.8466 225.098Z" fill="#F6F0EC"/>
<path d="M95.9052 63.9369V48.0739C95.9052 44.7613 93.2119 42.095 89.9262 42.095H13.1967C9.88408 42.095 7.2178 44.7882 7.2178 48.0739V63.9369H95.9052Z" fill="#DADADA"/>
<path d="M2.28923 92.431H2.20844C1.93912 92.431 1.72366 92.2155 1.72366 91.9462V62.8595C1.72366 62.5902 1.93912 62.3748 2.20844 62.3748H2.28923C2.55856 62.3748 2.77401 62.5902 2.77401 62.8595V91.9731C2.77401 92.2155 2.55856 92.431 2.28923 92.431Z" fill="#E0F4F6"/>
<path d="M1.7309 76.9827H2.78125V75.8246H1.7309L1.7309 76.9827Z" fill="#A3DEE3"/>
<path d="M2.28927 104.093H2.20847C1.93915 104.093 1.72369 103.877 1.72369 103.608V97.1979C1.72369 96.9286 1.93915 96.7131 2.20847 96.7131H2.28927C2.55859 96.7131 2.77404 96.9286 2.77404 97.1979V103.608C2.77404 103.877 2.55859 104.093 2.28927 104.093Z" fill="#E0F4F6"/>
<path d="M19.4988 108.752H84.4051C85.644 108.752 86.6405 109.748 86.6405 110.987V114.596C86.6405 115.835 85.644 116.831 84.4051 116.831H19.4988C18.2599 116.831 17.2635 115.835 17.2635 114.596V110.987C17.2904 109.748 18.2869 108.752 19.4988 108.752Z" fill="white"/>
<path d="M79.0995 111.957H22.4613C22.2458 111.957 22.0573 111.768 22.0573 111.553C22.0573 111.337 22.2458 111.149 22.4613 111.149H79.0995C79.3149 111.149 79.5034 111.337 79.5034 111.553C79.5034 111.795 79.3149 111.957 79.0995 111.957Z" fill="#F6F0EC"/>
<path d="M65.5796 114.408H22.4883C22.2728 114.408 22.0843 114.219 22.0843 114.004C22.0843 113.788 22.2728 113.6 22.4883 113.6H65.5796C65.7951 113.6 65.9836 113.788 65.9836 114.004C65.9836 114.219 65.7951 114.408 65.5796 114.408Z" fill="#F6F0EC"/>
<path d="M20.199 107.567H83.7318C85.3477 107.567 86.6405 106.274 86.6405 104.658V73.5786C86.6405 71.9627 85.3477 70.6699 83.7318 70.6699H20.199C18.5831 70.6699 17.2904 71.9627 17.2904 73.5786V104.631C17.2904 106.247 18.5831 107.567 20.199 107.567Z" fill="white"/>
<path d="M17.2904 77.8339H86.6405V73.5786C86.6405 71.9627 85.3477 70.6699 83.7318 70.6699H20.199C18.5831 70.6699 17.2904 71.9627 17.2904 73.5786V77.8339Z" fill="#F9CECC"/>
<path d="M24.8044 74.2518C24.8044 74.8982 24.2927 75.4099 23.6463 75.4099C23 75.4099 22.4883 74.8982 22.4883 74.2518C22.4883 73.6054 23 73.0937 23.6463 73.0937C24.2927 73.0668 24.8044 73.6054 24.8044 74.2518Z" fill="#E0F4F6"/>
<path d="M28.8442 74.2518C28.8442 74.8982 28.3325 75.4099 27.6862 75.4099C27.0398 75.4099 26.5281 74.8982 26.5281 74.2518C26.5281 73.6054 27.0398 73.0937 27.6862 73.0937C28.3056 73.0668 28.8442 73.6054 28.8442 74.2518Z" fill="#E0F4F6"/>
<path d="M32.8302 74.2518C32.8302 74.8982 32.3185 75.4099 31.6721 75.4099C31.0257 75.4099 30.514 74.8982 30.514 74.2518C30.514 73.6054 31.0257 73.0937 31.6721 73.0937C32.3185 73.0668 32.8302 73.6054 32.8302 74.2518Z" fill="#E0F4F6"/>
<path d="M51.9519 103.365C45.8653 103.365 40.9098 98.4098 40.9098 92.3232C40.9098 86.2365 45.8653 81.281 51.9519 81.281C58.0386 81.281 62.9941 86.2365 62.9941 92.3232C62.9941 98.4098 58.0386 103.365 51.9519 103.365ZM51.9519 83.7049C47.2119 83.7049 43.3337 87.5831 43.3337 92.3232C43.3337 97.0632 47.2119 100.941 51.9519 100.941C56.692 100.941 60.5702 97.0632 60.5702 92.3232C60.5702 87.5831 56.7189 83.7049 51.9519 83.7049Z" fill="#F6F0EC"/>
<path d="M58.9005 100.376C58.5773 100.376 58.2811 100.268 58.0387 100.026L44.3572 86.3443C43.8724 85.8595 43.8724 85.1054 44.3572 84.6207C44.842 84.1359 45.596 84.1359 46.0808 84.6207L59.7623 98.3022C60.2471 98.7869 60.2471 99.541 59.7623 100.026C59.5199 100.268 59.2237 100.376 58.9005 100.376Z" fill="#F6F0EC"/>
<path d="M19.4988 207.835H84.4051C85.644 207.835 86.6405 208.831 86.6405 210.07V213.679C86.6405 214.918 85.644 215.915 84.4051 215.915H19.4988C18.2599 215.915 17.2635 214.918 17.2635 213.679V210.07C17.2904 208.831 18.2869 207.835 19.4988 207.835Z" fill="white"/>
<path d="M79.0995 211.067H22.4613C22.2458 211.067 22.0573 210.878 22.0573 210.663C22.0573 210.447 22.2458 210.259 22.4613 210.259H79.0995C79.3149 210.259 79.5034 210.447 79.5034 210.663C79.5034 210.878 79.3149 211.067 79.0995 211.067Z" fill="#F6F0EC"/>
<path d="M65.5796 213.491H22.4883C22.2728 213.491 22.0843 213.302 22.0843 213.087C22.0843 212.871 22.2728 212.683 22.4883 212.683H65.5796C65.7951 212.683 65.9836 212.871 65.9836 213.087C65.9836 213.329 65.7951 213.491 65.5796 213.491Z" fill="#F6F0EC"/>
<path d="M20.199 206.65H83.7318C85.3477 206.65 86.6405 205.357 86.6405 203.741V172.688C86.6405 171.073 85.3477 169.78 83.7318 169.78H20.199C18.5831 169.78 17.2904 171.073 17.2904 172.688V203.741C17.2904 205.357 18.5831 206.65 20.199 206.65Z" fill="white"/>
<path d="M17.2904 176.917H86.6405V172.662C86.6405 171.046 85.3477 169.753 83.7318 169.753H20.199C18.5831 169.753 17.2904 171.046 17.2904 172.662V176.917Z" fill="#F9CECC"/>
<path d="M24.8044 173.335C24.8044 173.981 24.2927 174.493 23.6463 174.493C23 174.493 22.4883 173.981 22.4883 173.335C22.4883 172.688 23 172.177 23.6463 172.177C24.2927 172.177 24.8044 172.688 24.8044 173.335Z" fill="#E0F4F6"/>
<path d="M28.8442 173.335C28.8442 173.981 28.3325 174.493 27.6862 174.493C27.0398 174.493 26.5281 173.981 26.5281 173.335C26.5281 172.688 27.0398 172.177 27.6862 172.177C28.3056 172.177 28.8442 172.688 28.8442 173.335Z" fill="#E0F4F6"/>
<path d="M32.8302 173.335C32.8302 173.981 32.3185 174.493 31.6721 174.493C31.0257 174.493 30.514 173.981 30.514 173.335C30.514 172.688 31.0257 172.177 31.6721 172.177C32.3185 172.177 32.8302 172.688 32.8302 173.335Z" fill="#E0F4F6"/>
<path d="M51.9519 202.449C45.8653 202.449 40.9098 197.493 40.9098 191.406C40.9098 185.32 45.8653 180.364 51.9519 180.364C58.0386 180.364 62.9941 185.32 62.9941 191.406C62.9941 197.493 58.0386 202.449 51.9519 202.449ZM51.9519 182.788C47.2119 182.788 43.3337 186.666 43.3337 191.406C43.3337 196.146 47.2119 200.025 51.9519 200.025C56.692 200.025 60.5702 196.146 60.5702 191.406C60.5702 186.666 56.7189 182.788 51.9519 182.788Z" fill="#F6F0EC"/>
<path d="M58.9005 199.459C58.5773 199.459 58.2811 199.351 58.0387 199.109L44.3572 185.428C43.8724 184.943 43.8724 184.189 44.3572 183.704C44.842 183.219 45.596 183.219 46.0808 183.704L59.7623 197.385C60.2471 197.87 60.2471 198.624 59.7623 199.109C59.5199 199.351 59.2237 199.459 58.9005 199.459Z" fill="#F6F0EC"/>
<path d="M41.664 158.199H106.57C107.809 158.199 108.806 159.195 108.806 160.434V164.043C108.806 165.282 107.809 166.279 106.57 166.279H41.664C40.4251 166.279 39.4286 165.282 39.4286 164.043V160.434C39.4286 159.195 40.4251 158.199 41.664 158.199Z" fill="#CECECE"/>
<path d="M101.265 161.404H44.6265C44.411 161.404 44.2225 161.215 44.2225 161C44.2225 160.784 44.411 160.596 44.6265 160.596H101.265C101.48 160.596 101.669 160.784 101.669 161C101.669 161.215 101.48 161.404 101.265 161.404Z" fill="#FFDEDD"/>
<path d="M87.7177 163.855H44.6264C44.4109 163.855 44.2224 163.666 44.2224 163.451C44.2224 163.235 44.4109 163.047 44.6264 163.047H87.7177C87.9332 163.047 88.1217 163.235 88.1217 163.451C88.1217 163.666 87.9332 163.855 87.7177 163.855Z" fill="#FFDEDD"/>
<path d="M42.3373 156.987H105.87C107.486 156.987 108.779 155.694 108.779 154.079V123.026C108.779 121.41 107.486 120.117 105.87 120.117H42.3373C40.7213 120.117 39.4286 121.41 39.4286 123.026V154.079C39.4286 155.694 40.7483 156.987 42.3373 156.987Z" fill="#CECECE"/>
<path d="M39.4286 127.254H108.779V122.999C108.779 121.383 107.486 120.09 105.87 120.09H42.3373C40.7213 120.09 39.4286 121.383 39.4286 122.999V127.254Z" fill="#FFDEDD"/>
<path d="M46.9695 123.699C46.9695 124.345 46.4578 124.857 45.8115 124.857C45.1651 124.857 44.6534 124.345 44.6534 123.699C44.6534 123.053 45.1651 122.541 45.8115 122.541C46.4309 122.514 46.9695 123.053 46.9695 123.699Z" fill="#E0F4F6"/>
<path d="M50.9824 123.699C50.9824 124.345 50.4707 124.857 49.8243 124.857C49.178 124.857 48.6663 124.345 48.6663 123.699C48.6663 123.053 49.178 122.541 49.8243 122.541C50.4707 122.514 50.9824 123.053 50.9824 123.699Z" fill="#E0F4F6"/>
<path d="M54.9953 123.699C54.9953 124.345 54.4836 124.857 53.8372 124.857C53.1908 124.857 52.6791 124.345 52.6791 123.699C52.6791 123.053 53.1908 122.541 53.8372 122.541C54.4567 122.514 54.9953 123.053 54.9953 123.699Z" fill="#E0F4F6"/>
<path d="M73.3092 150.874C78.3366 150.874 82.4122 146.798 82.4122 141.771C82.4122 136.743 78.3366 132.667 73.3092 132.667C68.2817 132.667 64.2061 136.743 64.2061 141.771C64.2061 146.798 68.2817 150.874 73.3092 150.874Z" fill="#FF251B"/>
<path d="M72.0973 137.353L77.3759 141.151C77.8069 141.447 77.8069 142.094 77.3759 142.39L72.0973 146.187C71.5855 146.537 70.8853 146.187 70.8853 145.568C70.8853 143.036 70.8853 140.531 70.8853 138C70.8853 137.353 71.5855 137.003 72.0973 137.353Z" fill="white"/>
<path d="M37.1932 49.7705L34.2038 56.8267H31.8607L28.8712 49.7705H31.4298L33.0995 53.8911L34.8232 49.7705H37.1932Z" fill="white"/>
<path d="M37.9204 49.7705H40.2904V56.8267H37.9204V49.7705Z" fill="white"/>
<path d="M41.4485 49.7705H44.9227C45.7038 49.7705 46.404 49.9052 46.9965 50.2014C47.589 50.4977 48.0738 50.9017 48.397 51.4134C48.7202 51.952 48.9087 52.5714 48.9087 53.2986C48.9087 54.0258 48.7471 54.6452 48.397 55.1839C48.0738 55.7225 47.589 56.1265 46.9965 56.3958C46.404 56.6921 45.7038 56.8267 44.9227 56.8267H41.4485V49.7705ZM44.815 54.9684C45.3267 54.9684 45.7307 54.8337 46.0269 54.5375C46.3232 54.2412 46.4848 53.8373 46.4848 53.2986C46.4848 52.76 46.3232 52.356 46.0269 52.0597C45.7307 51.7635 45.3267 51.6288 44.815 51.6288H43.8185V54.9684H44.815Z" fill="white"/>
<path d="M55.6148 55.0223V56.8267H49.7436V49.7705H55.4801V51.575H52.0867V52.4098H55.0761V54.1335H52.0867V55.0492H55.6148V55.0223Z" fill="white"/>
<path d="M58.2002 56.5035C57.6077 56.1803 57.1229 55.7494 56.7728 55.1838C56.4227 54.6183 56.2611 53.9988 56.2611 53.2986C56.2611 52.5984 56.4227 51.952 56.7728 51.4133C57.1229 50.8478 57.5808 50.4169 58.2002 50.0937C58.7927 49.7705 59.493 49.6089 60.2471 49.6089C61.0012 49.6089 61.6745 49.7705 62.2939 50.0937C62.8864 50.4169 63.3712 50.8478 63.7213 51.4133C64.0714 51.9789 64.233 52.5984 64.233 53.2986C64.233 53.9988 64.0714 54.6452 63.7213 55.1838C63.3712 55.7494 62.9133 56.1803 62.2939 56.5035C61.7014 56.8267 61.0012 56.9883 60.2471 56.9883C59.466 56.9613 58.7927 56.7998 58.2002 56.5035ZM61.0281 54.8337C61.2705 54.699 61.459 54.4836 61.5937 54.2143C61.7283 53.945 61.8091 53.6487 61.8091 53.2717C61.8091 52.9215 61.7283 52.5983 61.5937 52.329C61.459 52.0597 61.2705 51.8712 61.0281 51.7096C60.7857 51.5749 60.5164 51.4941 60.2201 51.4941C59.9239 51.4941 59.6546 51.5749 59.4122 51.7096C59.1698 51.8443 58.9813 52.0597 58.8466 52.329C58.7119 52.5983 58.6311 52.8946 58.6311 53.2717C58.6311 53.6218 58.7119 53.945 58.8466 54.2143C58.9813 54.4836 59.1698 54.6721 59.4122 54.8337C59.6546 54.9684 59.9239 55.0492 60.2201 55.0492C60.5164 55.0492 60.7857 54.9684 61.0281 54.8337Z" fill="white"/>
<path d="M66.0106 56.7727C65.445 56.6381 65.0141 56.4765 64.637 56.2341L65.3911 54.5104C65.7143 54.699 66.0914 54.8605 66.5223 54.9683C66.9263 55.076 67.3302 55.1568 67.7342 55.1568C68.0574 55.1568 68.2998 55.1299 68.4344 55.0491C68.5691 54.9952 68.6499 54.8875 68.6499 54.7528C68.6499 54.6182 68.5691 54.4835 68.3806 54.4296C68.1921 54.3488 67.8958 54.268 67.4649 54.1872C66.9263 54.0795 66.4684 53.9449 66.1183 53.8102C65.7682 53.6755 65.445 53.4601 65.1757 53.1638C64.9063 52.8676 64.7717 52.4636 64.7717 51.9519C64.7717 51.521 64.9063 51.117 65.1487 50.7399C65.3911 50.3898 65.7682 50.0936 66.2529 49.8781C66.7377 49.6627 67.3572 49.5549 68.0574 49.5549C68.5422 49.5549 69.027 49.6088 69.4848 49.7165C69.9426 49.8242 70.3736 49.9858 70.7237 50.1744L69.9965 51.898C69.2963 51.5479 68.6499 51.3863 68.0305 51.3863C67.411 51.3863 67.1148 51.521 67.1148 51.8172C67.1148 51.9519 67.1956 52.0596 67.3841 52.1404C67.5726 52.2212 67.8689 52.2751 68.2729 52.3559C68.8115 52.4636 69.2693 52.5713 69.6195 52.706C69.9965 52.8406 70.3197 53.0561 70.589 53.3523C70.8583 53.6486 70.993 54.0526 70.993 54.5643C70.993 54.9952 70.8583 55.3992 70.616 55.7762C70.3736 56.1264 69.9965 56.4226 69.5117 56.6381C69.027 56.8535 68.4075 56.9613 67.7073 56.9613C67.1148 56.9613 66.5492 56.9074 66.0106 56.7727Z" fill="white"/>
<path d="M21.4649 57.6616C23.9786 57.6616 26.0164 55.6239 26.0164 53.1101C26.0164 50.5964 23.9786 48.5586 21.4649 48.5586C18.9511 48.5586 16.9134 50.5964 16.9134 53.1101C16.9134 55.6239 18.9511 57.6616 21.4649 57.6616Z" fill="white"/>
<path d="M20.8724 50.9016L23.5118 52.7869C23.7272 52.9485 23.7272 53.2447 23.5118 53.4063L20.8724 55.2915C20.63 55.4801 20.2799 55.2915 20.2799 54.9684C20.2799 53.7026 20.2799 52.4368 20.2799 51.1709C20.253 50.9016 20.6031 50.7131 20.8724 50.9016Z" fill="#A3DEE3"/>
<path d="M159.653 144.544C159.653 144.517 159.869 142.902 160.192 141.07C160.354 140.047 160.515 139.158 160.65 138.431C164.528 136.088 168.379 133.745 172.258 131.428C173.685 134.876 175.409 140.101 175.84 146.618C176.324 153.863 175.085 160.111 174.547 162.67C173.281 168.81 171.584 172.419 171.315 179.852C171.261 181.63 171.288 182.923 171.369 184.404C171.773 192.295 173.012 197.17 175.543 209.855C175.947 211.848 176.567 214.999 177.294 218.958C176.217 219.631 175.139 220.331 174.035 221.005C170.992 216.399 168.972 212.467 167.76 209.935C167.733 209.909 154.078 181.387 159.653 144.544Z" fill="#FFBA93"/>
<path d="M180.472 220.304C180.58 220.628 180.66 220.924 180.687 221.22C179.475 222.109 178.237 222.998 177.025 223.886C176.836 223.59 176.621 223.321 176.432 223.025C176.297 223.563 176.163 224.102 176.028 224.614C173.712 226.31 171.396 228.007 169.053 229.704C168.972 229.758 168.595 230.054 168.164 229.946C168.164 229.946 167.76 229.865 167.518 229.488C167.006 228.68 168.568 226.687 169.053 226.122C170.184 224.694 171.719 222.594 173.47 219.658C173.658 219.712 173.9 219.739 174.17 219.739C174.951 219.685 175.463 219.146 175.624 218.985C176.163 218.338 176.701 217.692 177.267 217.046C177.94 217.396 179.772 218.338 180.472 220.304Z" fill="#333333"/>
<path d="M145.514 142.282C145.864 140.37 146.214 138.808 146.457 137.838C151.385 138 156.341 138.135 161.269 138.296C160.704 144.14 159.923 153.324 159.438 164.663C159.034 173.739 159.034 179.664 158.872 191.46C158.765 199.378 158.576 211.067 158.199 225.529C156.879 225.556 155.56 225.583 154.24 225.637C153.217 216.318 152.085 208.751 151.278 203.714C146.834 176.109 141.797 162.481 145.514 142.282Z" fill="#FFBA93"/>
<path d="M159.169 229.111C159.061 229.434 158.953 229.731 158.792 229.973C157.283 229.973 155.775 229.973 154.267 229.973C154.267 229.623 154.294 229.273 154.294 228.923C153.863 229.273 153.432 229.623 153.028 229.973C150.146 229.973 147.265 229.973 144.41 229.973C144.302 229.973 143.844 229.973 143.548 229.65C143.548 229.65 143.279 229.354 143.306 228.896C143.359 227.953 145.81 227.28 146.537 227.064C148.288 226.58 150.766 225.772 153.917 224.452C154.025 224.587 154.213 224.775 154.455 224.937C155.129 225.341 155.856 225.233 156.071 225.179C156.906 224.964 157.714 224.775 158.549 224.56C158.845 225.26 159.788 227.118 159.169 229.111Z" fill="#333333"/>
<path d="M145.595 229.111C145.433 229.111 145.326 229.004 145.326 228.842C145.326 228.68 145.433 228.573 145.595 228.573L152.84 228.546C153.001 228.546 153.109 228.653 153.109 228.815C153.109 228.977 153.001 229.084 152.84 229.084L145.595 229.111Z" fill="white"/>
<path d="M134.903 131.375C134.283 131.698 133.799 131.967 133.475 132.183C133.475 132.183 129.059 134.58 128.385 134.876C128.304 134.903 128.224 134.876 128.197 134.822C128.17 134.768 128.17 134.687 128.251 134.633L130.082 133.341L126.204 134.499C126.015 134.553 125.881 134.283 126.069 134.176L129.059 132.29L125.207 133.529C125.019 133.583 124.911 133.341 125.073 133.233L128.628 131.213L125.18 132.075C125.073 132.102 124.992 131.94 125.126 131.886C126.608 131.213 128.116 130.54 129.597 129.893C128.682 129.543 127.793 129.166 126.877 128.816C126.689 128.735 126.769 128.466 126.958 128.493C129.678 128.735 132.398 128.951 135.145 129.193C135.091 129.866 135.011 130.62 134.903 131.375Z" fill="#FFBA93"/>
<path d="M157.553 98.1406C158.576 103.177 159.384 109.371 159.169 116.481C159.061 119.982 158.765 123.187 158.307 126.096C158.307 126.096 154.24 133.799 138.269 133.26C137.219 133.233 136.6 132.721 136.6 132.721C136.357 132.533 136.196 132.344 136.088 132.183C135.441 131.994 134.795 131.806 134.149 131.617C134.283 130.701 134.391 129.786 134.526 128.87C135.118 128.789 135.684 128.682 136.276 128.601C136.384 128.466 136.546 128.304 136.761 128.143C137.273 127.82 137.785 127.82 137.892 127.82C138.781 127.793 147.265 125.261 149.958 122.837C154.967 118.34 149.985 105.197 149.635 104.281C149.581 103.985 149.069 101.345 150.847 99.3525C152.489 97.6019 155.183 97.0633 157.553 98.1406Z" fill="#FF6157"/>
<path d="M153.001 123.537C152.974 123.537 152.92 123.537 152.893 123.51L151.062 122.676C150.927 122.622 150.874 122.46 150.927 122.325C150.981 122.191 151.143 122.137 151.277 122.191L153.109 123.026C153.244 123.08 153.297 123.241 153.244 123.376C153.217 123.484 153.109 123.537 153.001 123.537Z" fill="#333333"/>
<path d="M151.412 121.895C151.278 121.895 151.143 121.787 151.143 121.652C151.143 121.491 151.251 121.383 151.385 121.356L152.328 121.275C152.489 121.275 152.597 121.383 152.624 121.518C152.624 121.679 152.516 121.787 152.382 121.814L151.412 121.895Z" fill="#333333"/>
<path d="M143.279 149.662C144.06 140.693 147.157 128.628 147.83 126.904C147.884 126.796 148.019 126.446 148.073 125.961C148.18 124.749 147.561 123.78 147.372 123.484C146.026 121.275 144.76 115.7 145.864 111.93C145.945 111.633 146.107 111.176 146.349 110.448C147.157 108.078 147.453 107.513 147.857 106.301C150.039 99.945 149.877 99.3255 151.035 98.3829C151.035 98.3829 153.459 96.3899 158.576 95.959C158.711 95.959 158.845 95.9321 158.845 95.9321C159.115 95.9051 159.519 95.8782 160.004 95.8782C162.67 95.7974 170.911 95.5012 173.685 99.0023C174.628 100.16 174.251 103.042 173.55 108.698C172.608 116.239 171.557 118.851 172.285 123.672C172.554 125.477 172.877 126.204 173.55 128.574C174.628 132.425 176.809 141.043 176.917 149.769C176.971 153.648 176.621 159.249 174.762 166.063C164.42 165.39 154.078 164.717 143.737 164.016C142.848 157.957 142.982 153.055 143.279 149.662Z" fill="#FF251B"/>
<path d="M157.31 127.146C154.913 127.146 152.516 126.904 150.173 126.419C150.039 126.392 149.931 126.258 149.958 126.096C149.985 125.961 150.119 125.854 150.281 125.881C152.813 126.419 155.425 126.635 158.011 126.581C159.573 126.554 161.162 126.419 162.697 126.177C162.831 126.15 162.993 126.258 162.993 126.392C163.02 126.527 162.912 126.689 162.777 126.689C161.215 126.931 159.6 127.066 158.011 127.12C157.768 127.12 157.553 127.146 157.31 127.146Z" fill="#333333"/>
<path d="M175.893 134.957C175.489 135.495 175.166 135.953 174.951 136.276C174.951 136.276 171.961 140.316 171.477 140.882C171.423 140.936 171.342 140.936 171.288 140.909C171.234 140.882 171.207 140.801 171.234 140.72L172.338 138.754L169.322 141.447C169.16 141.582 168.945 141.393 169.053 141.232L170.965 138.242L168.002 140.99C167.868 141.124 167.652 140.936 167.76 140.774L170.13 137.434L167.383 139.67C167.275 139.751 167.167 139.616 167.248 139.535C168.325 138.296 169.376 137.057 170.453 135.819C169.484 135.872 168.514 135.926 167.544 136.007C167.356 136.007 167.302 135.738 167.491 135.684C170.049 134.741 172.608 133.772 175.193 132.829C175.436 133.529 175.651 134.23 175.893 134.957Z" fill="#FFBA93"/>
<path d="M171.396 97.6018C176.998 99.6486 184.135 103.419 189.413 110.475C191.514 113.276 193.238 115.646 193.345 119.04C193.345 119.04 193.642 127.55 179.825 134.795C178.937 135.28 178.129 135.145 178.129 135.145C177.859 135.118 177.617 135.01 177.455 134.93C176.809 135.091 176.19 135.253 175.543 135.388C175.193 134.553 174.87 133.718 174.52 132.856C174.978 132.506 175.436 132.129 175.866 131.779C175.893 131.617 175.947 131.402 176.055 131.159C176.324 130.647 176.755 130.378 176.863 130.324C177.671 129.813 184.512 123.537 184.673 120.252C184.835 116.831 177.94 112.899 168.46 110.529C168.164 108.94 167.814 105.951 168.864 102.503C169.591 100.376 170.615 98.706 171.396 97.6018Z" fill="#FF251B"/>
<path d="M158.576 98.5444H159.653C160.542 98.5444 161.296 97.8173 161.296 96.9016V90.384C161.296 90.3032 161.215 90.2224 161.135 90.2224H157.122C157.041 90.2224 156.96 90.3032 156.96 90.384V96.9016C156.96 97.8173 157.687 98.5444 158.576 98.5444Z" fill="#FFBA93"/>
<path d="M152.463 84.1897C153.028 88.4988 151.951 90.1148 153.378 91.623C154.913 93.2119 157.553 92.8349 157.795 92.808C161.189 92.2693 163.101 88.6604 163.585 85.9941C163.72 85.1593 164.286 81.2272 161.889 79.6112C160.973 78.9918 159.923 79.0726 157.795 79.2073C156.368 79.2881 154.617 79.4227 153.432 80.6616C153.001 81.1194 152.786 81.5773 152.732 81.7119C152.247 82.7354 152.409 83.7588 152.463 84.1897Z" fill="#FFBA93"/>
<path d="M152.355 80.5807C152.166 81.6041 152.274 82.4659 152.409 83.0046C153.944 84.9168 155.183 85.3207 156.044 85.2938C156.772 85.2938 157.122 84.9706 157.903 85.1861C159.222 85.5093 159.788 86.802 160.246 86.5327C160.327 86.4788 160.704 86.2364 160.65 85.213C160.785 85.213 160.892 85.213 160.946 85.1861C161.108 85.1591 161.162 85.1591 161.189 85.1591C161.512 85.1591 162.481 87.2329 161.889 89.4683C161.754 89.9531 161.593 90.3032 161.485 90.5186C161.377 90.7341 159.788 93.6158 161.296 96.336C162.724 98.9484 165.929 99.3793 167.868 99.11C168.433 99.0292 170.776 98.5982 172.069 96.6053C172.635 95.7434 173.416 93.9121 172.608 92.8348C172.15 92.1884 171.261 91.973 171.1 91.946C170.372 91.7575 169.941 91.973 169.672 91.946C167.76 91.8114 169.107 81.4964 164.501 77.3758C162.266 75.3828 158.522 74.7634 155.964 76.0561C155.56 76.2716 152.92 77.672 152.355 80.5807Z" fill="#2C2C2C"/>
<path d="M159.977 86.7214C159.977 87.7718 160.812 88.6067 161.862 88.6067C162.912 88.6067 163.747 87.7718 163.747 86.7214C163.747 85.6711 162.912 84.8362 161.862 84.8362C160.812 84.8362 159.977 85.698 159.977 86.7214Z" fill="#FFBA93"/>
<path d="M126.101 226.611L129.349 226.352L128.859 220.204L125.61 220.463L126.101 226.611Z" fill="#FFBA93"/>
<path d="M130.325 226.445L130.998 228.788C131.159 229.3 130.648 229.811 130.001 229.811H118.744C118.205 229.811 117.774 229.407 117.855 228.976C117.882 228.896 117.882 228.815 117.936 228.734C118.313 227.657 120.09 226.903 120.09 226.903C121.248 226.418 122.757 225.745 124.588 224.964C124.965 224.802 125.423 224.883 125.692 225.206C125.881 225.448 126.177 225.691 126.581 225.879C127.12 226.122 127.604 226.095 127.847 226.068L129.22 225.852C129.705 225.772 130.217 226.041 130.325 226.445Z" fill="#1E2223"/>
<path d="M145.334 220.158L142.099 220.553L142.848 226.675L146.082 226.28L145.334 220.158Z" fill="#FFBA93"/>
<path d="M141.878 226.472L141.205 228.815C141.043 229.327 141.555 229.838 142.202 229.838H153.459C153.998 229.838 154.429 229.435 154.348 229.004C154.321 228.923 154.321 228.842 154.267 228.761C153.89 227.684 152.113 226.93 152.113 226.93C150.954 226.445 149.446 225.772 147.615 224.991C147.238 224.829 146.78 224.91 146.511 225.233C146.322 225.475 146.026 225.718 145.622 225.906C145.083 226.149 144.598 226.122 144.356 226.095L142.983 225.879C142.498 225.799 142.013 226.068 141.878 226.472Z" fill="#1E2223"/>
<path d="M130.459 224.56C130.109 215.888 129.947 208.481 129.894 202.664C129.786 191.11 130.028 184.835 130.109 182.546C130.271 178.56 130.486 175.22 130.648 172.931C132.802 183.003 134.93 193.076 137.004 203.176C138.485 210.286 139.912 217.423 141.367 224.56H147.803C146.834 207.673 145.218 190.114 142.767 171.934C142.175 167.518 141.528 163.128 140.882 158.818C134.284 158.684 127.685 158.549 121.087 158.441C120.871 159.626 120.575 161.35 120.306 163.451C119.498 169.322 118.717 178.425 120.36 196.443C121.033 203.93 122.164 213.464 124.184 224.56C126.258 224.56 128.358 224.56 130.459 224.56Z" fill="#333333"/>
<path d="M139.428 168.487C139.374 168.487 139.32 168.46 139.266 168.433C138.458 167.814 137.839 167.086 137.408 166.198C137.165 165.74 137.004 165.228 136.896 164.716C136.869 164.582 136.95 164.42 137.111 164.393C137.246 164.366 137.408 164.447 137.435 164.609C137.542 165.094 137.704 165.551 137.919 165.955C138.323 166.763 138.889 167.437 139.616 168.002C139.724 168.083 139.751 168.272 139.67 168.379C139.589 168.46 139.508 168.487 139.428 168.487Z" fill="white"/>
<path d="M101.696 136.653C101.453 136.384 101.211 136.088 100.995 135.792C99.7835 134.229 98.8678 132.64 98.1676 131.159C98.1406 131.105 98.1675 131.025 98.2214 130.971C98.2753 130.944 98.3561 130.944 98.4099 130.998L99.7296 132.64L98.4099 129.085C98.3561 128.897 98.5715 128.789 98.7062 128.924L100.645 131.644L99.2718 128.089C99.2179 127.927 99.4334 127.793 99.5411 127.954L101.642 131.186L100.645 128.008C100.618 127.9 100.753 127.847 100.807 127.927C101.507 129.301 102.234 130.648 102.935 132.021C103.231 131.159 103.5 130.27 103.796 129.409C103.85 129.22 104.12 129.274 104.12 129.462L103.662 135.899C103.015 136.169 102.369 136.411 101.696 136.653Z" fill="#FFBA93"/>
<path d="M128.978 134.553C129.193 134.014 129.651 132.91 129.274 131.779C128.682 129.974 126.473 129.382 126.258 129.328C124.642 128.924 123.241 129.462 122.81 129.651C121.006 130.405 119.39 132.048 115.7 139.939C114.973 141.501 114.461 142.632 114.031 143.44C113.707 144.06 112.872 144.167 112.415 143.683C111.876 143.117 111.257 142.417 110.502 141.582C109.237 140.181 107.082 137.811 104.227 134.714C103.204 135.388 102.207 136.061 101.184 136.734C103.904 140.828 105.439 144.167 106.382 146.618C106.382 146.618 108.079 151.089 111.31 153.836C111.418 153.944 111.687 154.159 112.091 154.267C114.031 154.886 116.266 152.57 116.912 151.87C118.124 150.658 119.552 149.042 121.329 147.022C121.275 147.022 125.854 141.851 128.978 134.553Z" fill="#FF6157"/>
<path d="M140.397 159.519C140.532 159.492 140.747 159.438 140.99 159.303C143.737 158.011 143.44 152.22 143.279 149.042C143.252 148.584 143.171 147.372 143.306 145.757C143.386 144.598 143.521 143.737 143.575 143.494C144.518 137.542 145.002 134.58 144.114 132.721C141.663 127.631 131.483 127.685 131.294 127.685C130.836 127.685 130.351 127.739 130.351 127.739C129.543 127.793 124.265 128.17 121.545 130.297C121.437 130.405 121.248 130.54 121.006 130.755C118.69 133.018 118.986 136.223 119.067 139.05C119.309 146.564 117.828 147.48 118.663 153.836C118.932 155.964 119.417 158.253 121.141 159.33C122.164 159.95 123.214 159.896 123.672 159.896C126.823 159.761 132.694 159.68 140.397 159.519Z" fill="#FF251B"/>
<path d="M141.097 144.814C141.69 145.837 142.417 146.834 143.252 147.668C143.252 147.157 143.252 146.51 143.306 145.783C143.387 144.625 143.521 143.763 143.575 143.521C143.79 142.228 143.952 141.097 144.114 140.074C142.336 139.185 140.451 138.565 138.485 138.135C138.593 140.424 140.047 143.036 141.097 144.814Z" fill="#333333"/>
<path d="M141.851 164.959C141.797 165.309 141.717 165.686 141.636 166.063C141.232 168.002 140.612 169.726 139.939 171.207C139.912 171.261 139.831 171.315 139.778 171.288C139.724 171.261 139.67 171.207 139.67 171.126L140.047 169.053L138.189 172.365C138.108 172.527 137.838 172.419 137.892 172.258L138.7 169.026L136.896 172.392C136.815 172.554 136.573 172.446 136.627 172.285L137.731 168.595L135.953 171.423C135.899 171.53 135.738 171.45 135.792 171.342C136.357 169.914 136.95 168.487 137.515 167.06C136.68 167.41 135.819 167.76 134.984 168.11C134.795 168.191 134.687 167.948 134.822 167.841L140.02 164.016C140.612 164.259 141.232 164.609 141.851 164.959Z" fill="#FFBA93"/>
<path d="M137.408 132.21C136.519 133.61 136.6 135.118 136.627 135.603C136.761 137.569 137.838 139.589 144.194 145.568C147.426 148.611 148.288 149.285 148.423 150.739C148.557 152.328 147.642 153.459 145.164 156.637C144.006 158.118 142.04 160.65 139.481 164.016C140.316 164.905 141.151 165.794 141.986 166.656C144.221 165.013 147.292 162.724 150.847 159.842C156.018 155.641 156.879 154.509 157.23 153.001C157.687 151.035 156.018 148.153 152.705 142.444C152.705 142.444 149.231 136.492 143.252 131.24C142.821 130.863 141.905 130.082 140.693 130.082C138.781 130.136 137.542 132.048 137.408 132.21Z" fill="#FF6157"/>
<path d="M130.971 128.951H131.186C132.183 128.951 132.964 128.143 132.964 127.173V121.868C132.964 121.787 132.91 121.733 132.829 121.733H129.301C129.22 121.733 129.166 121.787 129.166 121.868V127.173C129.193 128.17 130.001 128.951 130.971 128.951Z" fill="#FFBA93"/>
<path d="M122.918 118.043C123.807 122.137 122.891 123.753 124.372 125.073C125.961 126.473 128.439 125.908 128.682 125.854C131.886 125.073 133.449 121.491 133.691 118.905C133.772 118.097 133.987 114.3 131.59 112.926C130.675 112.415 129.651 112.549 127.658 112.845C126.285 113.034 124.615 113.303 123.618 114.569C123.241 115.027 123.08 115.512 123.026 115.619C122.622 116.67 122.837 117.639 122.918 118.043Z" fill="#FFBA93"/>
<path d="M122.164 114.138C121.787 114.65 121.41 115 121.491 115.431C121.518 115.512 121.545 115.619 121.841 115.969C122.056 116.239 122.353 116.562 122.757 116.939C124.534 117.02 125.315 116.562 125.692 116.158C125.8 116.05 125.881 115.916 126.069 115.835C126.904 115.512 128.17 116.831 128.547 117.235C129.84 118.582 130.19 119.821 130.513 119.74C130.648 119.713 130.809 119.444 130.809 118.447C130.944 118.42 131.025 118.42 131.105 118.393C131.294 118.366 131.321 118.339 131.348 118.339C131.698 118.339 132.075 120.602 132.587 122.298C132.748 122.837 132.91 123.268 132.991 123.483C133.933 122.837 135.199 121.706 135.899 119.982C137.758 115.35 134.418 109.048 131.698 108.94C131.186 108.913 130.755 109.129 130.405 109.344C129.759 108.967 129.22 108.859 128.897 108.806C126.096 108.482 123.699 111.58 123.08 112.549C122.703 113.142 122.703 113.438 122.164 114.138Z" fill="#2C2C2C"/>
<path d="M132.496 121.532C133.468 121.312 134.078 120.346 133.859 119.374C133.639 118.402 132.673 117.792 131.701 118.012C130.729 118.232 130.119 119.198 130.338 120.17C130.558 121.142 131.524 121.752 132.496 121.532Z" fill="#FFBA93"/>
<path d="M131.509 120.629C131.429 120.629 131.348 120.602 131.294 120.521C131.213 120.413 131.213 120.225 131.348 120.144L132.506 119.201C132.614 119.121 132.802 119.121 132.883 119.255C132.964 119.363 132.964 119.552 132.829 119.632L131.671 120.575C131.617 120.602 131.563 120.629 131.509 120.629Z" fill="#333333"/>
<path d="M131.725 120.467H131.698C131.563 120.44 131.456 120.306 131.456 120.171L131.563 119.471C131.59 119.336 131.725 119.228 131.86 119.228C131.994 119.255 132.102 119.39 132.102 119.525L131.994 120.225C131.967 120.359 131.833 120.467 131.725 120.467Z" fill="#333333"/>
<path d="M103.258 137.542L105.682 136.115C105.924 135.98 106.005 135.657 105.87 135.415L100.214 125.692C100.08 125.45 99.7565 125.369 99.5141 125.504L97.0902 126.931C96.8478 127.066 96.767 127.389 96.9017 127.631L102.557 137.354C102.692 137.596 103.015 137.704 103.258 137.542Z" fill="#3A3B3A"/>
<path d="M103.742 137.273L106.166 135.845C106.409 135.711 106.489 135.387 106.355 135.145L100.699 125.423C100.564 125.18 100.241 125.099 99.9988 125.234L97.5749 126.661C97.3325 126.796 97.2517 127.119 97.3864 127.362L103.042 137.084C103.177 137.327 103.473 137.434 103.742 137.273Z" fill="#6C6C6C"/>
<path d="M103.769 136.788L105.735 135.63C105.924 135.522 106.005 135.28 105.87 135.064L100.484 125.827C100.376 125.638 100.133 125.557 99.918 125.692L97.952 126.85C97.7634 126.958 97.6826 127.2 97.8173 127.416L103.204 136.653C103.311 136.842 103.554 136.923 103.769 136.788Z" fill="#E0F4F6"/>
<path d="M106.543 131.294C106.436 131.267 106.328 131.159 106.355 131.051C106.382 130.944 106.489 130.836 106.597 130.863C107.109 130.917 107.594 130.944 108.105 130.917C108.213 130.917 108.321 130.998 108.348 131.132C108.348 131.24 108.267 131.348 108.132 131.375C107.594 131.375 107.055 131.348 106.543 131.294ZM104.389 130.782C104.362 130.782 104.362 130.782 104.335 130.782C103.85 130.621 103.365 130.405 102.881 130.163C102.773 130.109 102.719 129.974 102.773 129.866C102.827 129.759 102.961 129.705 103.069 129.759C103.527 129.974 103.985 130.19 104.47 130.351C104.577 130.378 104.658 130.513 104.604 130.621C104.604 130.755 104.496 130.809 104.389 130.782ZM110.233 130.971C110.152 130.971 110.071 130.917 110.044 130.809C110.018 130.701 110.071 130.567 110.179 130.54C110.61 130.405 111.014 130.217 111.418 130.001C111.472 129.974 111.499 129.947 111.553 129.92C111.66 129.866 111.795 129.893 111.849 130.001C111.903 130.109 111.876 130.244 111.768 130.297C111.714 130.324 111.687 130.351 111.633 130.378C111.23 130.594 110.772 130.782 110.314 130.944C110.287 130.971 110.26 130.971 110.233 130.971ZM101.13 129.032C101.103 129.032 101.049 129.005 101.022 128.978C100.618 128.655 100.214 128.331 99.8372 127.954C99.7564 127.874 99.7564 127.739 99.8372 127.631C99.918 127.55 100.053 127.55 100.16 127.631C100.511 127.981 100.915 128.304 101.292 128.628C101.399 128.708 101.399 128.843 101.345 128.924C101.292 129.005 101.211 129.032 101.13 129.032ZM113.357 129.005C113.303 129.005 113.276 128.978 113.222 128.951C113.142 128.87 113.142 128.735 113.222 128.628C113.573 128.277 113.869 127.874 114.165 127.47C114.219 127.362 114.381 127.335 114.461 127.416C114.569 127.47 114.596 127.631 114.515 127.712C114.219 128.17 113.896 128.574 113.546 128.951C113.492 128.978 113.411 129.005 113.357 129.005ZM115.296 125.854C115.269 125.854 115.269 125.854 115.242 125.854C115.135 125.8 115.081 125.692 115.108 125.557C115.269 125.1 115.431 124.615 115.539 124.103C115.566 123.995 115.673 123.915 115.808 123.941C115.916 123.968 115.996 124.076 115.97 124.211C115.862 124.722 115.7 125.234 115.512 125.719C115.512 125.8 115.404 125.854 115.296 125.854ZM116.023 122.191C115.916 122.164 115.835 122.083 115.835 121.975C115.862 121.464 115.835 120.952 115.781 120.467C115.754 120.359 115.862 120.225 115.97 120.225C116.077 120.198 116.212 120.306 116.212 120.413C116.266 120.925 116.293 121.437 116.266 121.975C116.266 122.11 116.158 122.218 116.023 122.191ZM115.431 118.555C115.35 118.555 115.296 118.501 115.242 118.42C115.054 117.963 114.838 117.532 114.569 117.074C114.515 116.966 114.542 116.831 114.65 116.777C114.758 116.724 114.892 116.751 114.946 116.858C115.242 117.316 115.458 117.774 115.646 118.259C115.7 118.366 115.646 118.501 115.512 118.555C115.512 118.555 115.458 118.555 115.431 118.555ZM113.438 115.404C113.384 115.404 113.33 115.377 113.303 115.323C113.249 115.242 113.169 115.162 113.115 115.108C113.088 115.108 113.061 115.108 113.034 115.108C112.899 115.108 112.818 115 112.818 114.865C112.818 114.838 112.819 114.811 112.845 114.785C112.657 114.569 112.495 114.354 112.307 114.138C112.226 114.057 112.253 113.896 112.334 113.842C112.415 113.761 112.576 113.788 112.63 113.869C112.818 114.084 113.007 114.3 113.169 114.515C113.222 114.569 113.249 114.623 113.303 114.65C113.734 114.677 114.138 114.65 114.542 114.623C114.65 114.623 114.758 114.704 114.785 114.811C114.785 114.919 114.704 115.027 114.596 115.054C114.3 115.081 114.004 115.108 113.68 115.081C113.707 115.162 113.68 115.242 113.6 115.323C113.546 115.404 113.492 115.431 113.438 115.404ZM110.852 114.731C110.341 114.596 109.829 114.461 109.344 114.273C109.237 114.246 109.156 114.111 109.21 114.003C109.237 113.896 109.371 113.815 109.479 113.869C109.964 114.03 110.448 114.192 110.933 114.3C111.041 114.327 111.122 114.461 111.095 114.569C111.068 114.677 110.96 114.758 110.852 114.731ZM107.351 113.465C107.324 113.465 107.297 113.465 107.297 113.438C106.705 113.169 106.22 112.899 105.924 112.738C105.816 112.684 105.789 112.549 105.843 112.441C105.897 112.334 106.032 112.307 106.139 112.361C106.436 112.522 106.92 112.765 107.486 113.061C107.594 113.115 107.648 113.249 107.594 113.357C107.54 113.438 107.432 113.492 107.351 113.465ZM116.67 114.542C116.589 114.542 116.535 114.488 116.508 114.407C116.454 114.3 116.508 114.165 116.616 114.111C116.912 113.977 117.182 113.815 117.424 113.626C117.559 113.519 117.693 113.411 117.828 113.303C117.909 113.222 118.07 113.222 118.151 113.33C118.232 113.411 118.232 113.573 118.124 113.653C117.963 113.788 117.828 113.896 117.666 114.003C117.397 114.192 117.101 114.381 116.778 114.515C116.751 114.542 116.697 114.542 116.67 114.542ZM104.146 111.58C104.119 111.58 104.066 111.553 104.039 111.526C103.635 111.203 103.231 110.879 102.854 110.529C102.773 110.448 102.773 110.314 102.854 110.206C102.934 110.125 103.069 110.098 103.177 110.206C103.554 110.556 103.931 110.879 104.335 111.176C104.443 111.256 104.443 111.391 104.389 111.472C104.281 111.553 104.2 111.58 104.146 111.58ZM111.203 112.441C111.122 112.441 111.068 112.388 111.041 112.334C110.799 111.849 110.61 111.337 110.529 110.826C110.502 110.718 110.583 110.583 110.691 110.556C110.799 110.529 110.933 110.61 110.96 110.718C111.041 111.203 111.203 111.633 111.445 112.091C111.499 112.199 111.445 112.334 111.337 112.388C111.283 112.441 111.256 112.441 111.203 112.441ZM119.309 111.984C119.282 111.984 119.255 111.984 119.228 111.957C119.121 111.903 119.067 111.768 119.148 111.66C119.39 111.229 119.552 110.745 119.632 110.287C119.659 110.179 119.767 110.098 119.875 110.098C119.982 110.125 120.063 110.233 120.063 110.341C119.982 110.852 119.794 111.364 119.552 111.849C119.471 111.957 119.39 112.011 119.309 111.984ZM101.453 108.994C101.399 108.994 101.345 108.967 101.318 108.913C100.995 108.509 100.672 108.105 100.376 107.674C100.295 107.567 100.322 107.432 100.43 107.378C100.537 107.297 100.672 107.324 100.726 107.432C101.022 107.863 101.318 108.267 101.642 108.644C101.722 108.725 101.696 108.886 101.615 108.94C101.588 108.967 101.507 108.994 101.453 108.994ZM110.718 108.806C110.583 108.779 110.502 108.671 110.529 108.563C110.637 108.025 110.772 107.513 110.987 107.028C111.041 106.92 111.176 106.866 111.283 106.92C111.391 106.974 111.445 107.109 111.391 107.217C111.203 107.648 111.068 108.132 110.987 108.644C110.933 108.752 110.826 108.833 110.718 108.806ZM99.4063 105.897C99.3255 105.897 99.2717 105.843 99.2447 105.789C99.0023 105.331 98.7869 104.874 98.5714 104.389C98.5176 104.281 98.5714 104.146 98.6792 104.092C98.7869 104.039 98.9216 104.092 98.9754 104.2C99.1909 104.658 99.4063 105.116 99.6218 105.574C99.6756 105.681 99.6487 105.816 99.541 105.87C99.4871 105.897 99.4333 105.897 99.4063 105.897ZM119.659 108.375C119.578 108.375 119.498 108.294 119.471 108.213C119.336 107.728 119.121 107.297 118.851 106.893C118.77 106.786 118.797 106.651 118.905 106.597C119.013 106.516 119.148 106.543 119.201 106.651C119.498 107.082 119.74 107.594 119.875 108.105C119.902 108.213 119.848 108.348 119.713 108.375C119.713 108.375 119.686 108.375 119.659 108.375ZM112.441 105.601C112.388 105.601 112.334 105.574 112.307 105.52C112.226 105.412 112.253 105.277 112.334 105.224C112.468 105.116 112.603 105.035 112.738 104.954C113.061 104.766 113.411 104.631 113.788 104.523C113.896 104.496 114.03 104.577 114.057 104.685C114.084 104.793 114.004 104.927 113.896 104.954C113.573 105.035 113.249 105.17 112.953 105.331C112.818 105.412 112.711 105.493 112.603 105.574C112.549 105.601 112.495 105.601 112.441 105.601ZM117.424 105.493C117.397 105.493 117.37 105.493 117.343 105.466C116.912 105.224 116.454 105.035 115.97 104.927C115.862 104.9 115.781 104.793 115.808 104.658C115.835 104.55 115.943 104.47 116.077 104.496C116.589 104.604 117.101 104.82 117.559 105.089C117.666 105.143 117.693 105.277 117.639 105.385C117.585 105.466 117.505 105.52 117.424 105.493ZM97.952 102.45C97.8712 102.45 97.7904 102.369 97.7635 102.288C97.6827 101.992 97.6019 101.722 97.5211 101.426C97.4941 101.318 97.548 101.184 97.6827 101.157C97.7904 101.13 97.9251 101.184 97.952 101.318C98.0328 101.615 98.1136 101.884 98.1944 102.153C98.2213 102.261 98.1674 102.396 98.0597 102.423C98.0328 102.45 97.9789 102.45 97.952 102.45Z" fill="#6C6C6C"/>
</svg>
